<?xml version="1.0" encoding="UTF-8" standalone="no"?>
<svg width="7px" height="13px" viewBox="0 0 7 13" version="1.1" xmlns="http://www.w3.org/2000/svg" xmlns:xlink="http://www.w3.org/1999/xlink">
    <!-- Generator: Sketch 46.2 (44496) - http://www.bohemiancoding.com/sketch -->
    <title></title>
    <desc>Created with Sketch.</desc>
    <defs></defs>
    <g id="Desktop_Detail" stroke="none" stroke-width="1" fill="none" fill-rule="evenodd">
        <g transform="translate(-1228.000000, -629.000000)" id="body" fill="#FFFFFF">
            <g transform="translate(410.000000, 514.000000)">
                <g id="main-content" transform="translate(30.000000, 81.000000)">
                    <g id="button" transform="translate(529.000000, 34.000000)">
                        <g id="share-button">
                            <path d="M260.804683,12.4999964 L263.007803,12.4999964 L263.007803,7.13282172 L264.718736,7.13282172 L264.999986,5.00001431 L263.007803,5.00001431 L263.007803,3.52345533 C263.007803,3.17970603 263.070303,2.92970686 263.195302,2.77345711 C263.351552,2.58595756 263.640614,2.49220778 264.062488,2.49220778 L265.187485,2.49220778 L265.187485,0.59377481 C264.765611,0.53127484 264.218738,0.500025034 263.546864,0.500025034 C262.718741,0.500025034 262.05468,0.746118197 261.554681,1.23830452 C261.054683,1.73049085 260.804683,2.42189545 260.804683,3.31251833 L260.804683,5.00001431 L259,5.00001431 L259,7.13282172 L260.804683,7.13282172 L260.804683,12.4999964 Z" id=""></path>
                        </g>
                    </g>
                </g>
            </g>
        </g>
    </g>
</svg>