<?xml version="1.0" encoding="UTF-8" standalone="no"?>
<svg width="15px" height="15px" viewBox="0 0 15 15" version="1.1" xmlns="http://www.w3.org/2000/svg" xmlns:xlink="http://www.w3.org/1999/xlink">
    <!-- Generator: Sketch 46.2 (44496) - http://www.bohemiancoding.com/sketch -->
    <title></title>
    <desc>Created with Sketch.</desc>
    <defs></defs>
    <g id="Desktop_Detail" stroke="none" stroke-width="1" fill="none" fill-rule="evenodd">
        <g transform="translate(-440.000000, -3223.000000)" id="body" fill="#777777">
            <g transform="translate(410.000000, 514.000000)">
                <g id="main-content" transform="translate(30.000000, 81.000000)">
                    <g id="tag" transform="translate(0.000000, 2627.000000)">
                        <path d="M14.0136719,7.63085938 C14.0136719,8.15039322 13.9179697,8.50585842 13.7265625,8.69726562 L6.80859375,15.6152344 C6.6354158,15.7884123 6.42578248,15.875 6.1796875,15.875 C5.93359252,15.875 5.72851645,15.7884123 5.56445312,15.6152344 L0.2734375,10.3242188 C0.19140584,10.2421871 0.127604395,10.1487635 0.08203125,10.0439453 C0.0364581055,9.93912708 0.013671875,9.82747455 0.013671875,9.70898438 C0.013671875,9.46288939 0.100259551,9.25325607 0.2734375,9.08007812 L7.19140625,2.16210938 C7.38281346,1.97070217 7.72916416,1.875 8.23046875,1.875 L12.9472656,1.875 C13.2389338,1.875 13.4895823,1.97981666 13.6992188,2.18945312 C13.9088552,2.39908959 14.0136719,2.64973812 14.0136719,2.94140625 L14.0136719,7.63085938 Z M13.0976562,8.08203125 C13.1250001,8.03645811 13.1386719,7.86784 13.1386719,7.57617188 L13.1386719,2.94140625 C13.1386719,2.88671848 13.1204429,2.84114602 13.0839844,2.8046875 C13.0475259,2.76822898 13.0019534,2.75 12.9472656,2.75 L8.08691406,2.75 C8.05501286,2.75 8.02539076,2.75227862 7.99804688,2.75683594 C7.97070299,2.76139325 7.94335951,2.76367188 7.91601562,2.76367188 C7.88867174,2.76367188 7.86588551,2.7659505 7.84765625,2.77050781 C7.82942699,2.77506513 7.81575525,2.781901 7.80664063,2.79101562 L0.888671875,9.70898438 L6.1796875,15 L13.0976562,8.08203125 Z M10.5136719,3.625 C10.8326839,3.625 11.1266263,3.70247318 11.3955078,3.85742188 C11.6643894,4.01237057 11.8763013,4.22428251 12.03125,4.49316406 C12.1861987,4.76204562 12.2636719,5.05598799 12.2636719,5.375 C12.2636719,5.85807533 12.0927751,6.2705061 11.7509766,6.61230469 C11.409178,6.95410327 10.9967472,7.125 10.5136719,7.125 C10.1946599,7.125 9.90071749,7.04752682 9.63183594,6.89257812 C9.36295438,6.73762943 9.15104244,6.52571749 8.99609375,6.25683594 C8.84114506,5.98795438 8.76367188,5.69401201 8.76367188,5.375 C8.76367188,4.89192467 8.9345686,4.4794939 9.27636719,4.13769531 C9.61816577,3.79589673 10.0305965,3.625 10.5136719,3.625 Z M11.1357422,5.99707031 C11.3043628,5.82844968 11.3886719,5.62109498 11.3886719,5.375 C11.3886719,5.12890502 11.3043628,4.92155032 11.1357422,4.75292969 C10.9671216,4.58430905 10.7620455,4.5 10.5205078,4.5 C10.2789701,4.5 10.0716154,4.58430905 9.8984375,4.75292969 C9.72525955,4.92155032 9.63867188,5.12890502 9.63867188,5.375 C9.63867188,5.62109498 9.72525955,5.82844968 9.8984375,5.99707031 C10.0716154,6.16569095 10.2789701,6.25 10.5205078,6.25 C10.7620455,6.25 10.9671216,6.16569095 11.1357422,5.99707031 Z" id=""></path>
                    </g>
                </g>
            </g>
        </g>
    </g>
</svg>