<?xml version="1.0" encoding="UTF-8" standalone="no"?>
<svg width="20px" height="20px" viewBox="0 0 20 20" version="1.1" xmlns="http://www.w3.org/2000/svg" xmlns:xlink="http://www.w3.org/1999/xlink">
    <!-- Generator: Sketch 46.2 (44496) - http://www.bohemiancoding.com/sketch -->
    <title>ico_photo copy</title>
    <desc>Created with Sketch.</desc>
    <defs></defs>
    <g id="trang-chu" stroke="none" stroke-width="1" fill="none" fill-rule="evenodd">
        <g id="saostar-pc-home" transform="translate(-954.000000, -664.000000)" fill="#9B9B9B">
            <g id="top-2" transform="translate(954.000000, 354.000000)">
                <g id="ico_photo" transform="translate(0.000000, 310.000000)">
                    <g>
                        <g id="m-home-fa" transform="translate(2.500000, 0.000000)" fill-rule="nonzero">
                            <g id="_x34_-tin-copy-2">
                                <g id="_x31_.1-copy-5">
                                    <g id="Group">
                                        <g id="pic">
                                            <path d="M14.5,17.25 L2.625,17.25 C1.375,17.25 0.25,16.25 0.25,14.875 L0.25,3 C0.25,1.75 1.25,0.625 2.625,0.625 L14.5,0.625 C15.75,0.625 16.875,1.625 16.875,3 L16.875,14.875 C16.875,16.125 15.875,17.25 14.5,17.25 Z M1.5,14.625 L1.5,14.875 C1.5,15.5 2,16 2.625,16 L14.5,16 C15.125,16 15.625,15.5 15.625,14.875 L15.625,14.625 L1.5,14.625 Z M10.75,7.875 L15.625,14.375 L15.625,2.875 C15.625,2.25 15.125,1.75 14.5,1.75 L2.625,1.75 C2,1.75 1.5,2.25 1.5,2.875 L1.5,14.375 L5.5,9.125 L7.625,11.625 L10.75,7.875 Z M8,13.375 L13.25,13.375 L10.625,9.875 L8,13.375 Z M3.875,13.375 L7.5,13.375 L5.625,11.125 L3.875,13.375 Z" id="Shape"></path>
                                        </g>
                                    </g>
                                </g>
                            </g>
                        </g>
                        <path d="M16,19.875 L4.5,19.875 C2.25,19.875 0.25,18 0.25,15.625 L0.25,4 L1.5,4 L1.5,15.625 C1.5,17.25 2.875,18.625 4.5,18.625 L16,18.625 C16,18.625 16,19.875 16,19.875 Z" id="Shape" fill-rule="nonzero"></path>
                    </g>
                </g>
            </g>
        </g>
    </g>
</svg>