<?xml version="1.0" encoding="UTF-8" standalone="no"?>
<svg width="13px" height="9px" viewBox="0 0 13 9" version="1.1" xmlns="http://www.w3.org/2000/svg" xmlns:xlink="http://www.w3.org/1999/xlink">
    <!-- Generator: Sketch 46.2 (44496) - http://www.bohemiancoding.com/sketch -->
    <title>visibility</title>
    <desc>Created with Sketch.</desc>
    <defs></defs>
    <g id="trang-chu" stroke="none" stroke-width="1" fill="none" fill-rule="evenodd">
        <g id="saostar-pc-home" transform="translate(-597.000000, -1389.000000)" fill="#666666">
            <path d="M603.533047,1391.8885 C603.975591,1391.8885 604.358556,1392.0502 604.681953,1392.37359 C605.005351,1392.69699 605.167047,1393.07996 605.167047,1393.5225 C605.167047,1393.96504 605.005351,1394.34801 604.681953,1394.67141 C604.358556,1394.9948 603.975591,1395.1565 603.533047,1395.1565 C603.090503,1395.1565 602.707538,1394.9948 602.384141,1394.67141 C602.060743,1394.34801 601.899047,1393.96504 601.899047,1393.5225 C601.899047,1393.07996 602.060743,1392.69699 602.384141,1392.37359 C602.707538,1392.0502 603.090503,1391.8885 603.533047,1391.8885 Z M603.533047,1396.25434 C604.281967,1396.25434 604.924497,1395.98627 605.460656,1395.45011 C605.996815,1394.91395 606.264891,1394.27142 606.264891,1393.5225 C606.264891,1392.77358 605.996815,1392.13105 605.460656,1391.59489 C604.924497,1391.05873 604.281967,1390.79066 603.533047,1390.79066 C602.784127,1390.79066 602.141596,1391.05873 601.605438,1391.59489 C601.069279,1392.13105 600.801203,1392.77358 600.801203,1393.5225 C600.801203,1394.27142 601.069279,1394.91395 601.605438,1395.45011 C602.141596,1395.98627 602.784127,1396.25434 603.533047,1396.25434 Z M603.533047,1389.4375 C604.8777,1389.4375 606.094677,1389.81195 607.184016,1390.56088 C608.273355,1391.3098 609.056305,1392.29699 609.532891,1393.5225 C609.056305,1394.74801 608.273355,1395.7352 607.184016,1396.48413 C606.094677,1397.23305 604.8777,1397.6075 603.533047,1397.6075 C602.188394,1397.6075 600.971417,1397.23305 599.882078,1396.48413 C598.792739,1395.7352 598.009789,1394.74801 597.533203,1393.5225 C598.009789,1392.29699 598.792739,1391.3098 599.882078,1390.56088 C600.971417,1389.81195 602.188394,1389.4375 603.533047,1389.4375 Z" id="visibility"></path>
        </g>
    </g>
</svg>