<?xml version="1.0" encoding="UTF-8" standalone="no"?>
<svg width="15px" height="15px" viewBox="0 0 15 15" version="1.1" xmlns="http://www.w3.org/2000/svg" xmlns:xlink="http://www.w3.org/1999/xlink">
    <!-- Generator: Sketch 46.2 (44496) - http://www.bohemiancoding.com/sketch -->
    <title>comment</title>
    <desc>Created with Sketch.</desc>
    <defs></defs>
    <g id="Desktop_Detail" stroke="none" stroke-width="1" fill="none" fill-rule="evenodd">
        <g transform="translate(-460.000000, -912.000000)" id="body" fill="#9B9B9B">
            <g transform="translate(410.000000, 514.000000)">
                <g id="main-content" transform="translate(30.000000, 81.000000)">
                    <g id="comment" transform="translate(10.000000, 306.000000)">
                        <path d="M22.0070423,15.5070423 L22.0070423,13.9929577 L12.9929577,13.9929577 L12.9929577,15.5070423 L22.0070423,15.5070423 Z M22.0070423,17.7605634 L22.0070423,16.2464789 L12.9929577,16.2464789 L12.9929577,17.7605634 L22.0070423,17.7605634 Z M22.0070423,20.0140845 L22.0070423,18.5 L12.9929577,18.5 L12.9929577,20.0140845 L22.0070423,20.0140845 Z M25,12.4788732 L25,26 L22.0070423,23.0070423 L11.4788732,23.0070423 C11.0798102,23.0070423 10.7335695,22.8544616 10.4401408,22.5492958 C10.1467121,22.2441299 10,21.8920208 10,21.4929577 L10,12.4788732 C10,12.0798102 10.1467121,11.7335695 10.4401408,11.4401408 C10.7335695,11.1467121 11.0798102,11 11.4788732,11 L23.5211268,11 C23.9201898,11 24.2664305,11.1467121 24.5598592,11.4401408 C24.8532879,11.7335695 25,12.0798102 25,12.4788732 Z"></path>
                    </g>
                </g>
            </g>
        </g>
    </g>
</svg>