<?xml version="1.0" encoding="UTF-8" standalone="no"?>
<svg width="23px" height="22px" viewBox="0 0 23 22" version="1.1" xmlns="http://www.w3.org/2000/svg" xmlns:xlink="http://www.w3.org/1999/xlink">
    <!-- Generator: Sketch 46.2 (44496) - http://www.bohemiancoding.com/sketch -->
    <title>ico_home</title>
    <desc>Created with Sketch.</desc>
    <defs></defs>
    <g id="trang-chu" stroke="none" stroke-width="1" fill="none" fill-rule="evenodd">
        <g id="saostar-pc-home" transform="translate(-460.000000, -183.000000)" fill="#ED1C24">
            <g id="menu" transform="translate(0.000000, 169.000000)">
                <g id="ico_home" transform="translate(460.000000, 14.000000)">
                    <path d="M21.8874325,10.7478914 L21.8885325,10.7478914 L21.8874325,10.7478914 Z M3.24240474,10.3835123 C3.31530877,10.3835123 3.38877684,10.3985303 3.45794401,10.4294828 C3.64838286,10.5145845 3.77106468,10.7036837 3.77106468,10.9123133 L3.77106468,20.4160649 C3.77106468,20.7062709 4.00712142,20.9423981 4.29739788,20.9423981 L8.07825414,20.9423981 C8.3684601,20.9423981 8.60451684,20.7062709 8.60451684,20.4160649 L8.60451684,13.7672743 C8.60451684,13.4752352 8.84127865,13.2384734 9.13331779,13.2384734 L13.9559119,13.2384734 C14.247951,13.2384734 14.4847129,13.4752352 14.4847129,13.7672743 L14.4847129,20.4160649 C14.4847129,20.4186031 14.4847129,20.4211414 14.4846423,20.4236796 C14.4824566,20.5789356 14.5335741,20.7174814 14.6287582,20.8140757 C14.7112512,20.8977673 14.8212418,20.9419751 14.9470259,20.9419751 L18.9538564,20.9419751 C19.2440624,20.9419751 19.4801191,20.7058478 19.4801191,20.4156419 L19.4801191,11.0460647 C19.4801191,10.8385632 19.6015318,10.650169 19.790631,10.5644328 C19.9794482,10.478908 20.2012626,10.5114822 20.3574351,10.6483359 C20.3574351,10.6483359 20.5332791,10.8024637 20.7587598,11.0005878 C20.8396311,10.9862044 21.0271087,10.9081534 21.2213549,10.6943768 L21.4961904,10.3921142 C21.5894708,10.2895268 21.6365694,10.1582431 21.6288136,10.0223765 C21.6210579,9.88650996 21.5592939,9.76143091 21.4548029,9.6700541 L11.7881806,1.21170671 C11.5509252,1.00434623 11.1543245,1.00871765 10.9220046,1.22164816 L1.22259665,10.1128368 C1.12057332,10.2062583 1.06212319,10.3321129 1.05782227,10.4670629 C1.05366237,10.6017309 1.10400422,10.7306878 1.19968194,10.8301729 L1.4431419,11.0837858 C1.64754109,11.2964343 1.97779491,11.33479 2.16449689,11.1676184 L2.88944774,10.5183918 C2.98836877,10.4297648 3.11457593,10.3835123 3.24240474,10.3835123 L3.24240474,10.3835123 Z M8.07825414,22 L4.29739788,22 C3.42403024,22 2.71346278,21.2894325 2.71346278,20.4160649 L2.71346278,12.0772265 C2.10280345,12.487294 1.22971784,12.388091 0.680399413,11.8163514 L0.437150978,11.5630205 C0.142644104,11.25688 -0.0124708397,10.8556963 0.000784437348,10.4337837 C0.0140397144,10.01173 0.194114063,9.62084036 0.507869291,9.33317265 L10.2072773,0.442054556 C10.8389476,-0.137017733 11.8392275,-0.148580847 12.4845056,0.415685016 L22.151128,8.87403241 C22.4710173,9.15380337 22.66061,9.5402511 22.6847234,9.96202273 C22.7088367,10.3837239 22.5645798,10.7891379 22.2786747,11.1036687 L22.0039098,11.4057198 C21.5569672,11.8978572 20.9936884,12.1271453 20.537721,12.0425372 L20.537721,20.4156419 C20.537721,21.2890095 19.8271536,21.999577 18.9538564,21.999577 L14.9470259,21.999577 C14.537734,21.999577 14.1571383,21.8422763 13.8755342,21.5565123 C13.5809568,21.2577045 13.421823,20.8515854 13.427111,20.4126101 L13.427111,14.2960753 L9.66211873,14.2960753 L9.66211873,20.4160649 C9.66211873,21.2894325 8.95155128,22 8.07825414,22 L8.07825414,22 Z" id="home"></path>
                </g>
            </g>
        </g>
    </g>
</svg>