<?xml version="1.0" encoding="UTF-8" standalone="no"?>
<svg width="11px" height="11px" viewBox="0 0 11 11" version="1.1" xmlns="http://www.w3.org/2000/svg" xmlns:xlink="http://www.w3.org/1999/xlink">
    <!-- Generator: Sketch 46.2 (44496) - http://www.bohemiancoding.com/sketch -->
    <title></title>
    <desc>Created with Sketch.</desc>
    <defs></defs>
    <g id="Desktop_Detail" stroke="none" stroke-width="1" fill="none" fill-rule="evenodd">
        <g transform="translate(-1249.000000, -636.000000)" id="body" fill="#FFFFFF">
            <g transform="translate(410.000000, 514.000000)">
                <g id="main-content" transform="translate(30.000000, 81.000000)">
                    <g id="button" transform="translate(529.000000, 34.000000)">
                        <g id="like-button" transform="translate(81.000000, 7.000000)">
                            <path d="M200.714286,8.71428571 C200.714286,8.59821371 200.671875,8.49776828 200.587054,8.41294643 C200.502232,8.32812458 200.401786,8.28571429 200.285714,8.28571429 C200.165178,8.28571429 200.063616,8.32812458 199.981027,8.41294643 C199.898437,8.49776828 199.857143,8.59821371 199.857143,8.71428571 C199.857143,8.83482203 199.898437,8.93638352 199.981027,9.01897321 C200.063616,9.10156291 200.165178,9.14285714 200.285714,9.14285714 C200.401786,9.14285714 200.502232,9.10156291 200.587054,9.01897321 C200.671875,8.93638352 200.714286,8.83482203 200.714286,8.71428571 Z M201.785714,5.28571429 L201.785714,9.57142857 C201.785714,9.68750058 201.743304,9.787946 201.658482,9.87276786 C201.57366,9.95758971 201.473215,10 201.357143,10 L199.428571,10 C199.312499,10 199.212054,9.95758971 199.127232,9.87276786 C199.04241,9.787946 199,9.68750058 199,9.57142857 L199,5.28571429 C199,5.16964228 199.04241,5.06919685 199.127232,4.984375 C199.212054,4.89955315 199.312499,4.85714286 199.428571,4.85714286 L201.357143,4.85714286 C201.473215,4.85714286 201.57366,4.89955315 201.658482,4.984375 C201.743304,5.06919685 201.785714,5.16964228 201.785714,5.28571429 Z M209.714286,5.28571429 C209.714286,5.66964478 209.591519,6.00223074 209.345982,6.28348214 C209.412947,6.4799117 209.446429,6.64955286 209.446429,6.79241071 C209.459821,7.13169813 209.36384,7.43749864 209.158482,7.70982143 C209.234375,7.95982268 209.234375,8.22098078 209.158482,8.49330357 C209.091518,8.74776913 208.970983,8.95758846 208.796875,9.12276786 C208.837054,9.62277036 208.72768,10.0267842 208.46875,10.3348214 C208.183034,10.6741088 207.743307,10.8482142 207.149554,10.8571429 L206.285714,10.8571429 C205.99107,10.8571429 205.669645,10.822545 205.321429,10.7533482 C204.973213,10.6841514 204.70201,10.6194199 204.507812,10.5591518 C204.313615,10.4988836 204.044645,10.4107149 203.700893,10.2946429 C203.151783,10.1026776 202.799108,10.0044643 202.642857,10 C202.526785,9.99553569 202.42634,9.95200934 202.341518,9.86941964 C202.256696,9.78682994 202.214286,9.68750058 202.214286,9.57142857 L202.214286,5.27901786 C202.214286,5.16741016 202.254464,5.07031291 202.334821,4.98772321 C202.415179,4.90513352 202.51116,4.85937504 202.622768,4.85044643 C202.729911,4.84151781 202.899552,4.7098227 203.131696,4.45535714 C203.36384,4.20089158 203.589285,3.930805 203.808036,3.64508929 C204.111609,3.25669449 204.337053,2.98884002 204.484375,2.84151786 C204.564733,2.76116031 204.633928,2.65401853 204.691964,2.52008929 C204.75,2.38616004 204.789062,2.2779022 204.809152,2.1953125 C204.829241,2.1127228 204.859375,1.97767951 204.899554,1.79017857 C204.930804,1.61607056 204.958705,1.47991121 204.983259,1.38169643 C205.007813,1.28348165 205.051339,1.16741138 205.113839,1.03348214 C205.17634,0.899552902 205.252232,0.787946875 205.341518,0.698660714 C205.42634,0.613838862 205.526785,0.571428571 205.642857,0.571428571 C205.848215,0.571428571 206.032365,0.594865837 206.195312,0.641741071 C206.35826,0.688616306 206.492187,0.74665144 206.597098,0.815848214 C206.702009,0.885044989 206.791294,0.975445871 206.864955,1.08705357 C206.938616,1.19866127 206.992187,1.2991067 207.02567,1.38839286 C207.059152,1.47767902 207.085937,1.58928504 207.106027,1.72321429 C207.126116,1.85714353 207.137277,1.95758895 207.139509,2.02455357 C207.141741,2.09151819 207.142857,2.17857089 207.142857,2.28571429 C207.142857,2.45535799 207.121652,2.62499915 207.079241,2.79464286 C207.03683,2.96428656 206.99442,3.09821379 206.952009,3.19642857 C206.909598,3.29464335 206.848215,3.4196421 206.767857,3.57142857 C206.754464,3.59821442 206.732143,3.63839259 206.700893,3.69196429 C206.669643,3.74553598 206.645089,3.79464263 206.627232,3.83928571 C206.609375,3.88392879 206.591518,3.93749969 206.573661,4 L208.428571,4 C208.776787,4 209.078124,4.12723087 209.332589,4.38169643 C209.587055,4.63616199 209.714286,4.93749826 209.714286,5.28571429 Z" id=""></path>
                        </g>
                    </g>
                </g>
            </g>
        </g>
    </g>
</svg>