<?xml version="1.0" encoding="UTF-8" standalone="no"?>
<svg width="12px" height="12px" viewBox="0 0 12 12" version="1.1" xmlns="http://www.w3.org/2000/svg" xmlns:xlink="http://www.w3.org/1999/xlink">
    <!-- Generator: Sketch 46.2 (44496) - http://www.bohemiancoding.com/sketch -->
    <title></title>
    <desc>Created with Sketch.</desc>
    <defs></defs>
    <g id="trang-chu" stroke="none" stroke-width="1" fill="none" fill-rule="evenodd">
        <g id="saostar-pc-home" transform="translate(-647.000000, -1377.000000)" fill="#666666">
            <g id="hot-nhat" transform="translate(460.000000, 1175.000000)">
                <g id="hot-1" transform="translate(10.000000, 68.000000)">
                    <g id="like" transform="translate(177.000000, 133.187500)">
                        <path d="M1.85714286,9.60714286 C1.85714286,9.48139818 1.81119838,9.3725823 1.71930804,9.28069196 C1.6274177,9.18880162 1.51860182,9.14285714 1.39285714,9.14285714 C1.26227613,9.14285714 1.15225119,9.18880162 1.06277902,9.28069196 C0.973306844,9.3725823 0.928571429,9.48139818 0.928571429,9.60714286 C0.928571429,9.73772387 0.973306844,9.84774881 1.06277902,9.93722098 C1.15225119,10.0266932 1.26227613,10.0714286 1.39285714,10.0714286 C1.51860182,10.0714286 1.6274177,10.0266932 1.71930804,9.93722098 C1.81119838,9.84774881 1.85714286,9.73772387 1.85714286,9.60714286 Z M3.01785714,5.89285714 L3.01785714,10.5357143 C3.01785714,10.661459 2.97191266,10.7702748 2.88002232,10.8621652 C2.78813198,10.9540555 2.6793161,11 2.55357143,11 L0.464285714,11 C0.338541038,11 0.229725162,10.9540555 0.137834821,10.8621652 C0.045944481,10.7702748 0,10.661459 0,10.5357143 L0,5.89285714 C0,5.76711247 0.045944481,5.65829659 0.137834821,5.56640625 C0.229725162,5.47451591 0.338541038,5.42857143 0.464285714,5.42857143 L2.55357143,5.42857143 C2.6793161,5.42857143 2.78813198,5.47451591 2.88002232,5.56640625 C2.97191266,5.65829659 3.01785714,5.76711247 3.01785714,5.89285714 Z M11.6071429,5.89285714 C11.6071429,6.30878184 11.4741457,6.6690833 11.2081473,6.97377232 C11.2806923,7.186571 11.3169643,7.37034893 11.3169643,7.52511161 C11.3314733,7.89267297 11.2274937,8.22395686 11.0050223,8.51897321 C11.08724,8.7898079 11.08724,9.07272918 11.0050223,9.36774554 C10.9324773,9.64341656 10.8018983,9.87072083 10.6132812,10.0496652 C10.6568083,10.5913346 10.5383199,11.0290162 10.2578125,11.3627232 C9.94828714,11.7302846 9.47191542,11.9188988 8.82868304,11.9285714 L7.89285714,11.9285714 C7.57365912,11.9285714 7.22544831,11.8910904 6.84821429,11.8161272 C6.47098026,11.7411641 6.17717739,11.6710383 5.96679687,11.6057478 C5.75641636,11.5404573 5.46503162,11.4449411 5.09263393,11.3191964 C4.49776488,11.1112341 4.11570025,11.0048363 3.94642857,11 C3.8206839,10.9951637 3.71186802,10.9480101 3.61997768,10.8585379 C3.52808734,10.7690658 3.48214286,10.661459 3.48214286,10.5357143 L3.48214286,5.88560268 C3.48214286,5.76469434 3.52566921,5.65950566 3.61272321,5.57003348 C3.69977722,5.48056131 3.80375684,5.43098963 3.92466518,5.42131696 C4.04073719,5.4116443 4.22451511,5.26897459 4.47600446,4.99330357 C4.72749382,4.71763255 4.97172501,4.42503875 5.20870536,4.11551339 C5.53757605,3.69475236 5.78180724,3.40457669 5.94140625,3.24497768 C6.02846026,3.15792367 6.1034223,3.0418534 6.16629464,2.89676339 C6.22916698,2.75167338 6.27148427,2.63439405 6.29324777,2.54492188 C6.31501127,2.4554497 6.34765603,2.3091528 6.39118304,2.10602679 C6.42503737,1.91740977 6.455264,1.76990381 6.48186384,1.66350446 C6.50846367,1.55710512 6.55561722,1.43136233 6.62332589,1.28627232 C6.69103456,1.14118231 6.773251,1.02027578 6.86997768,0.923549107 C6.96186802,0.831658767 7.0706839,0.785714286 7.19642857,0.785714286 C7.41889992,0.785714286 7.61839569,0.811104657 7.79492187,0.861886161 C7.97144806,0.912667665 8.11653589,0.97553906 8.23018973,1.05050223 C8.34384357,1.1254654 8.4405688,1.22339969 8.5203683,1.34430804 C8.60016781,1.46521638 8.65820294,1.57403225 8.69447545,1.67075893 C8.73074795,1.7674856 8.75976552,1.88839213 8.78152902,2.03348214 C8.80329252,2.17857215 8.81538317,2.28738803 8.81780134,2.35993304 C8.82021951,2.43247804 8.82142857,2.52678513 8.82142857,2.64285714 C8.82142857,2.82663782 8.79845633,3.01041575 8.75251116,3.19419643 C8.70656599,3.37797711 8.66062151,3.52306494 8.61467634,3.62946429 C8.56873117,3.73586363 8.50223258,3.87127894 8.41517857,4.03571429 C8.40066957,4.06473229 8.37648826,4.10825864 8.34263393,4.16629464 C8.30877959,4.22433065 8.28218016,4.27752952 8.26283482,4.32589286 C8.24348949,4.37425619 8.22414444,4.43229133 8.20479911,4.5 L10.2142857,4.5 C10.5915197,4.5 10.9179674,4.63783344 11.1936384,4.91350446 C11.4693094,5.18917549 11.6071429,5.51562311 11.6071429,5.89285714 Z" id=""></path>
                    </g>
                </g>
            </g>
        </g>
    </g>
</svg>