<?xml version="1.0" encoding="UTF-8" standalone="no"?>
<svg width="17px" height="17px" viewBox="0 0 17 17" version="1.1" xmlns="http://www.w3.org/2000/svg" xmlns:xlink="http://www.w3.org/1999/xlink">
    <!-- Generator: Sketch 46.2 (44496) - http://www.bohemiancoding.com/sketch -->
    <title></title>
    <desc>Created with Sketch.</desc>
    <defs></defs>
    <g id="trang-chu" stroke="none" stroke-width="1" fill="none" fill-rule="evenodd">
        <g id="saostar-pc-home.menu" transform="translate(-1351.000000, -696.000000)" fill="#FFFFFF">
            <g id="menu-category" transform="translate(460.000000, 219.000000)">
                <g id="Group-15" transform="translate(40.000000, 468.000000)">
                    <path d="M867.035119,11.0625308 C867.035119,10.5937821 866.871056,10.1953452 866.542932,9.8672212 C866.214808,9.53909716 865.816371,9.37503487 865.347623,9.37503487 L852.972652,9.37503487 C852.503904,9.37503487 852.105467,9.53909716 851.777343,9.8672212 C851.449219,10.1953452 851.285156,10.5937821 851.285156,11.0625308 L851.285156,23.4375013 C851.285156,23.90625 851.449219,24.304687 851.777343,24.632811 C852.105467,24.960935 852.503904,25.1249973 852.972652,25.1249973 L859.898417,25.1249973 L859.898417,18.9023559 L857.753891,18.9023559 L857.753891,16.5117366 L859.898417,16.5117366 L859.898417,14.7539283 C859.898417,13.7695556 860.173807,13.0019795 860.724587,12.4511994 C861.275367,11.9004193 862.019505,11.6250295 862.957003,11.6250295 C863.683564,11.6250295 864.292938,11.6601857 864.785124,11.730498 L864.785124,13.839868 L863.519502,13.839868 C863.07419,13.839868 862.757785,13.9453365 862.570286,14.1562735 C862.429661,14.3437728 862.359349,14.6250222 862.359349,15.0000215 L862.359349,16.5117366 L864.785124,16.5117366 L864.468719,18.9023559 L862.359349,18.9023559 L862.359349,25.1249973 L865.347623,25.1249973 C865.816371,25.1249973 866.214808,24.960935 866.542932,24.632811 C866.871056,24.304687 867.035119,23.90625 867.035119,23.4375013 L867.035119,11.0625308 Z" id=""></path>
                </g>
            </g>
        </g>
    </g>
</svg>