<?xml version="1.0" encoding="UTF-8" standalone="no"?>
<svg width="15px" height="15px" viewBox="0 0 15 15" version="1.1" xmlns="http://www.w3.org/2000/svg" xmlns:xlink="http://www.w3.org/1999/xlink">
    <!-- Generator: Sketch 46.2 (44496) - http://www.bohemiancoding.com/sketch -->
    <title>Shape</title>
    <desc>Created with Sketch.</desc>
    <defs></defs>
    <g id="Desktop_Detail" stroke="none" stroke-width="1" fill="none" fill-rule="evenodd">
        <g transform="translate(-1065.000000, -2959.000000)" id="body" fill="#9B9B9B">
            <g transform="translate(410.000000, 514.000000)">
                <g id="main-content" transform="translate(30.000000, 81.000000)">
                    <g id="design" transform="translate(625.000000, 2363.000000)">
                        <g id="drive-image" transform="translate(0.000000, 1.000000)">
                            <path d="M15,13.3333333 L15,1.66666667 C15,0.75 14.25,0 13.3333333,0 L1.66666667,0 C0.75,0 0,0.75 0,1.66666667 L0,13.3333333 C0,14.25 0.75,15 1.66666667,15 L13.3333333,15 C14.25,15 15,14.25 15,13.3333333 L15,13.3333333 Z M4.58333333,8.75 L6.66666667,11.25 L9.58333333,7.5 L13.3333333,12.5 L1.66666667,12.5 L4.58333333,8.75 L4.58333333,8.75 Z" id="Shape"></path>
                        </g>
                    </g>
                </g>
            </g>
        </g>
    </g>
</svg>