<?xml version="1.0" encoding="UTF-8" standalone="no"?>
<svg width="12px" height="12px" viewBox="0 0 12 12" version="1.1" xmlns="http://www.w3.org/2000/svg" xmlns:xlink="http://www.w3.org/1999/xlink">
    <!-- Generator: Sketch 46.2 (44496) - http://www.bohemiancoding.com/sketch -->
    <title></title>
    <desc>Created with Sketch.</desc>
    <defs></defs>
    <g id="trang-chu" stroke="none" stroke-width="1" fill="none" fill-rule="evenodd">
        <g id="saostar-pc-home" transform="translate(-710.000000, -1377.000000)" fill="#666666">
            <g id="hot-nhat" transform="translate(460.000000, 1175.000000)">
                <g id="hot-1" transform="translate(10.000000, 68.000000)">
                    <g id="share" transform="translate(240.000000, 133.187500)">
                        <path d="M8.82142857,7.28571429 C9.46466095,7.28571429 10.0123675,7.51180949 10.4645647,7.9640067 C10.9167619,8.4162039 11.1428571,8.96391047 11.1428571,9.60714286 C11.1428571,10.2503752 10.9167619,10.7980818 10.4645647,11.250279 C10.0123675,11.7024762 9.46466095,11.9285714 8.82142857,11.9285714 C8.17819619,11.9285714 7.63048961,11.7024762 7.17829241,11.250279 C6.72609521,10.7980818 6.5,10.2503752 6.5,9.60714286 C6.5,9.54910685 6.50483626,9.46689041 6.51450893,9.36049107 L3.90290179,8.0546875 C3.45795908,8.4706122 2.93080662,8.67857143 2.32142857,8.67857143 C1.67819619,8.67857143 1.13048961,8.45247622 0.678292411,8.00027902 C0.226095209,7.54808182 0,7.00037524 0,6.35714286 C0,5.71391047 0.226095209,5.1662039 0.678292411,4.7140067 C1.13048961,4.26180949 1.67819619,4.03571429 2.32142857,4.03571429 C2.93080662,4.03571429 3.45795908,4.24367352 3.90290179,4.65959821 L6.51450893,3.35379464 C6.50483626,3.2473953 6.5,3.16517886 6.5,3.10714286 C6.5,2.46391047 6.72609521,1.9162039 7.17829241,1.4640067 C7.63048961,1.01180949 8.17819619,0.785714286 8.82142857,0.785714286 C9.46466095,0.785714286 10.0123675,1.01180949 10.4645647,1.4640067 C10.9167619,1.9162039 11.1428571,2.46391047 11.1428571,3.10714286 C11.1428571,3.75037524 10.9167619,4.29808182 10.4645647,4.75027902 C10.0123675,5.20247622 9.46466095,5.42857143 8.82142857,5.42857143 C8.21205052,5.42857143 7.68489806,5.2206122 7.23995536,4.8046875 L4.62834821,6.11049107 C4.63802088,6.21689041 4.64285714,6.29910685 4.64285714,6.35714286 C4.64285714,6.41517886 4.63802088,6.4973953 4.62834821,6.60379464 L7.23995536,7.90959821 C7.68489806,7.49367352 8.21205052,7.28571429 8.82142857,7.28571429 Z" id=""></path>
                    </g>
                </g>
            </g>
        </g>
    </g>
</svg>