<?xml version="1.0" encoding="UTF-8" standalone="no"?>
<svg width="17px" height="18px" viewBox="0 0 17 18" version="1.1" xmlns="http://www.w3.org/2000/svg" xmlns:xlink="http://www.w3.org/1999/xlink">
    <!-- Generator: Sketch 46.2 (44496) - http://www.bohemiancoding.com/sketch -->
    <title>search_normal</title>
    <desc>Created with Sketch.</desc>
    <defs></defs>
    <g id="trang-chu" stroke="none" stroke-width="1" fill="none" fill-rule="evenodd">
        <g id="saostar-pc-home.menu" transform="translate(-1437.000000, -8.000000)" fill="#000000">
            <g id="search" transform="translate(1244.000000, 5.000000)">
                <path d="M204.864286,10.9285714 C204.864286,9.68972595 204.424,8.63002672 203.543415,7.74944196 C202.662831,6.8688572 201.603131,6.42857143 200.364286,6.42857143 C199.12544,6.42857143 198.065741,6.8688572 197.185156,7.74944196 C196.304572,8.63002672 195.864286,9.68972595 195.864286,10.9285714 C195.864286,12.1674169 196.304572,13.2271161 197.185156,14.1077009 C198.065741,14.9882857 199.12544,15.4285714 200.364286,15.4285714 C201.603131,15.4285714 202.662831,14.9882857 203.543415,14.1077009 C204.424,13.2271161 204.864286,12.1674169 204.864286,10.9285714 Z M210.007143,19.2857143 C210.007143,19.6339303 209.879912,19.9352666 209.625447,20.1897321 C209.370981,20.4441977 209.069645,20.5714286 208.721429,20.5714286 C208.35982,20.5714286 208.058483,20.4441977 207.817411,20.1897321 L204.372098,16.7544643 C203.173432,17.5848256 201.837507,18 200.364286,18 C199.406692,18 198.490964,17.814176 197.617076,17.4425223 C196.743188,17.0708687 195.989847,16.5686416 195.357031,15.9358259 C194.724216,15.3030102 194.221989,14.5496695 193.850335,13.6757812 C193.478681,12.801893 193.292857,11.8861655 193.292857,10.9285714 C193.292857,9.97097735 193.478681,9.05524991 193.850335,8.18136161 C194.221989,7.30747331 194.724216,6.55413263 195.357031,5.92131696 C195.989847,5.2885013 196.743188,4.78627418 197.617076,4.41462054 C198.490964,4.04296689 199.406692,3.85714286 200.364286,3.85714286 C201.32188,3.85714286 202.237607,4.04296689 203.111496,4.41462054 C203.985384,4.78627418 204.738725,5.2885013 205.37154,5.92131696 C206.004356,6.55413263 206.506583,7.30747331 206.878237,8.18136161 C207.24989,9.05524991 207.435714,9.97097735 207.435714,10.9285714 C207.435714,12.4017931 207.02054,13.7377172 206.190179,14.9363839 L209.635491,18.3816964 C209.88326,18.6294655 210.007143,18.9308018 210.007143,19.2857143 Z" id="search_normal"></path>
            </g>
        </g>
    </g>
</svg>