<?xml version="1.0" encoding="UTF-8" standalone="no"?>
<svg width="158px" height="25px" viewBox="0 0 158 25" version="1.1" xmlns="http://www.w3.org/2000/svg" xmlns:xlink="http://www.w3.org/1999/xlink">
    <!-- Generator: Sketch 46.2 (44496) - http://www.bohemiancoding.com/sketch -->
    <title>special</title>
    <desc>Created with Sketch.</desc>
    <defs></defs>
    <g id="trang-chu" stroke="none" stroke-width="1" fill="none" fill-rule="evenodd">
        <g id="saostar-pc-home" transform="translate(-480.000000, -3985.000000)" fill="#FFFFFF">
            <g id="special" transform="translate(460.000000, 3973.000000)">
                <g transform="translate(20.000000, 12.000000)">
                    <g>
                        <g id="XMLID_1491_" transform="translate(27.320244, 0.000000)" fill-rule="nonzero">
                            <path d="M112.662573,23.1530643 L106.052221,0.455097087 C106.01401,0.379247573 105.956695,0.28443568 105.86117,0.208586165 C105.765645,0.13273665 105.651014,0.0948118932 105.536384,0.0948118932 L105.211598,0.0948118932 C104.963232,0.0948118932 104.733971,0.208586165 104.562025,0.455097087 L89.9084399,23.1530643 C89.7938095,23.3426881 89.7555993,23.5512743 89.8511247,23.7408981 C89.94665,23.9305218 90.0994905,24.0253337 90.3287513,24.0253337 L94.0542392,24.0253337 C94.3408151,24.0253337 94.6273911,23.9494842 94.875757,23.7977852 C95.1050178,23.6460862 95.2960684,23.4564624 95.4298039,23.2289138 L97.1301548,20.5362561 L106.377007,20.5362561 L107.122104,23.1909891 C107.198524,23.4754248 107.33226,23.7029733 107.4851,23.83571 C107.637941,23.9684466 107.867202,24.0253337 108.172883,24.0253337 L111.936581,24.0253337 C112.165842,24.0253337 112.356892,23.9305218 112.509733,23.7408981 C112.643468,23.5512743 112.700783,23.3616505 112.662573,23.1530643 Z M104.695761,14.6579187 L105.230703,18.2607706 L102.536888,16.0421723 L99.0597664,18.2607706 L100.874748,14.6579187 L98.2000385,12.4393204 L102.021052,12.4393204 L103.836033,8.83646845 L104.370975,12.4393204 L108.172883,12.4393204 L104.695761,14.6579187 Z" id="XMLID_1505_"></path>
                            <path d="M7.43187061,24.3666566 C5.73151975,24.3666566 4.26042968,24.1201456 3.0186004,23.6081614 C1.77677112,23.0961772 0.859727963,22.4893811 0.248365856,21.7688107 C2.88657986e-15,21.484375 0.0191050658,21.1430522 0.286575988,20.7638046 L2.33081803,18.0332221 C2.48365856,17.8246359 2.67470922,17.7108617 2.92307507,17.6918993 C3.17144093,17.6729369 3.36249159,17.7108617 3.53443718,17.8246359 C4.43237528,18.5262439 5.23478804,19.0003034 5.92257041,19.2657767 C6.62945785,19.53125 7.31724022,19.6639867 8.02412766,19.6639867 C8.71191003,19.6639867 9.30416707,19.4743629 9.80089878,19.0951153 C10.3167356,18.7158677 10.6224166,18.2228459 10.7179419,17.6539745 C10.8134673,17.1609527 10.6797318,16.6489684 10.3549457,16.1180218 C10.0301596,15.5870752 9.18953667,14.9613167 7.81397193,14.2407464 C5.38762857,12.970267 3.84011824,11.7566748 3.17144093,10.618932 C2.52186869,9.48118932 2.31171297,8.21070995 2.56007882,6.80749393 C2.71291935,5.97314927 3.0186004,5.15776699 3.51533212,4.34238471 C3.99295876,3.52700243 4.62342593,2.80643204 5.38762857,2.16171117 C6.1518312,1.51699029 7.06887436,1.02396845 8.13875805,0.644720874 C9.20864174,0.265473301 10.3549457,0.0948118932 11.596775,0.0948118932 C12.7430789,0.0948118932 13.927593,0.303398058 15.1121071,0.739532767 C16.2966212,1.17566748 17.404715,1.80142597 18.4172835,2.63577063 C18.5892291,2.73058252 18.6465443,2.90124393 18.6083341,3.14775485 C18.570124,3.39426578 18.5128088,3.58388956 18.4172835,3.71662621 L16.239306,6.29550971 C16.0864654,6.4851335 15.8763097,6.61787015 15.5706287,6.69371966 C15.2649476,6.78853155 14.9783716,6.73164442 14.6917956,6.52305825 C13.1442853,5.30946602 11.7114054,4.7026699 10.431366,4.7026699 C9.78179371,4.7026699 9.2277468,4.87333131 8.80743536,5.2336165 C8.38712391,5.5939017 8.11965298,6.03003641 8.02412766,6.54202063 C7.94770739,6.9212682 8.10054792,7.35740291 8.46354417,7.83146238 C8.82654042,8.30552184 9.72447852,8.93128034 11.1764635,9.68977549 C12.9532346,10.6378944 14.1377487,11.3584648 14.6917956,11.8514867 C15.2458425,12.3445085 15.7043641,12.8564927 16.0100452,13.3684769 C16.3157262,13.8804612 16.544987,14.4872573 16.6787225,15.1509405 C16.8124579,15.8335862 16.7933529,16.5731189 16.6596174,17.3695388 C16.5067769,18.2228459 16.1628857,19.0761529 15.6470489,19.9104976 C15.1312122,20.7448422 14.4434298,21.5033374 13.641017,22.1670206 C12.8194992,22.8307039 11.8642459,23.3616505 10.7943622,23.7598604 C9.72447852,24.1770328 8.59727963,24.3666566 7.43187061,24.3666566 Z" id="XMLID_1503_"></path>
                            <path d="M19.6209026,23.3806129 L23.5947563,1.0618932 C23.6138614,0.910194175 23.7093867,0.758495146 23.8622272,0.625758495 C24.0150678,0.493021845 24.1679083,0.41717233 24.358959,0.41717233 L32.5359271,0.41717233 C33.6249159,0.41717233 34.5992742,0.606796117 35.4781073,1.00500607 C36.3569403,1.40321602 37.0638277,1.93416262 37.6178747,2.61680825 C38.1719216,3.29945388 38.5540229,4.09587379 38.7641786,5.00606796 C38.9743343,5.91626214 38.9934394,6.86438107 38.8214938,7.85042476 C38.6877583,8.6089199 38.4202874,9.42430218 38.019081,10.2586468 C37.6178747,11.0929915 37.0065125,11.9462985 36.1467846,12.818568 C35.2870566,13.6908374 34.3126983,14.3355583 33.1854994,14.771693 C32.0583005,15.2078277 30.9502067,15.4353762 29.899428,15.4353762 L26.3267807,15.4353762 L24.9130059,23.3616505 C24.8939008,23.5133495 24.7983755,23.6650485 24.6264299,23.7977852 C24.4735893,23.9305218 24.3016438,24.0063714 24.1488032,24.0063714 L20.1367394,24.0063714 C19.9456887,24.0063714 19.8119533,23.9305218 19.716428,23.7977852 C19.6209026,23.6840109 19.6017976,23.5512743 19.6209026,23.3806129 Z M27.2056138,10.5430825 L30.6445256,10.5430825 C31.3705181,10.5430825 32.0009853,10.2776092 32.5741373,9.765625 C33.1281842,9.25364078 33.4720754,8.62788228 33.6058108,7.86938714 C33.7204412,7.16777913 33.5867058,6.57994539 33.2046044,6.10588592 C32.8225031,5.63182646 32.2684562,5.38531553 31.5615688,5.38531553 L28.1226569,5.38531553 L27.2056138,10.5430825 Z" id="XMLID_1500_"></path>
                            <path d="M39.4901711,23.3806129 L43.4640248,1.0618932 C43.4831299,0.910194175 43.5786552,0.758495146 43.7314957,0.625758495 C43.8843362,0.493021845 44.0371768,0.41717233 44.2282274,0.41717233 L58.2704508,0.41717233 C58.4423964,0.41717233 58.595237,0.493021845 58.6907623,0.625758495 C58.7862876,0.758495146 58.8244977,0.910194175 58.8053927,1.0618932 L58.1558204,4.74059466 C58.1367154,4.89229369 58.04119,5.04399272 57.8883495,5.17672937 C57.735509,5.30946602 57.5826685,5.38531553 57.3916178,5.38531553 L47.9919254,5.38531553 L47.2468278,9.55703883 L54.9843795,9.55703883 C55.13722,9.55703883 55.2709555,9.63288835 55.3855859,9.765625 C55.5002163,9.89836165 55.5384264,10.0500607 55.5193213,10.2017597 L54.8697491,13.8804612 C54.831539,14.070085 54.7360136,14.221784 54.5831731,14.3355583 C54.4303326,14.4682949 54.258387,14.525182 54.1055465,14.525182 L46.3679948,14.525182 L45.565582,19.0761529 L54.9652744,19.0761529 C55.13722,19.0761529 55.2900606,19.1520024 55.3855859,19.2847391 C55.4811112,19.4174757 55.5193213,19.5691748 55.5002163,19.7208738 L54.850644,23.3995752 C54.831539,23.5512743 54.7360136,23.7029733 54.5831731,23.83571 C54.4303326,23.9684466 54.2774921,24.0442961 54.0864414,24.0442961 L40.0251129,24.0442961 C39.8340623,24.0442961 39.7003268,23.9684466 39.6048015,23.83571 C39.4901711,23.6840109 39.451961,23.5512743 39.4901711,23.3806129 Z" id="XMLID_1498_"></path>
                            <path d="M59.3594396,12.268659 C59.6460156,10.618932 60.2382726,9.06401699 61.1362107,7.58495146 C62.0341488,6.10588592 63.1422426,4.7974818 64.4795972,3.67870146 C65.8169518,2.55992112 67.2880419,1.6876517 68.8928674,1.04293083 C70.497693,0.41717233 72.1216236,0.0948118932 73.7837643,0.0948118932 C75.445905,0.0948118932 76.878785,0.360285194 78.1206142,0.872269417 C79.3624435,1.38425364 80.4705373,2.18067354 81.4448957,3.22360437 C81.5595261,3.35634102 81.5977362,3.50804005 81.5786312,3.69766383 C81.5595261,3.88728762 81.4640008,4.03898665 81.3111602,4.1717233 L78.1779294,6.90230583 C78.044194,7.0160801 77.8913535,7.07296723 77.7194079,7.07296723 C77.5474623,7.07296723 77.4137268,7.0160801 77.3182015,6.90230583 C76.2101077,5.76456311 74.7772277,5.17672937 73.0386667,5.17672937 C72.3508844,5.17672937 71.6248919,5.30946602 70.8224791,5.55597694 C70.0200663,5.80248786 69.2367586,6.21966019 68.472556,6.78853155 C67.7083534,7.35740291 67.020571,8.09693568 66.3901038,9.00712985 C65.7596366,9.91732403 65.3393252,10.9602549 65.1482745,12.11696 C64.995434,13.0081917 64.995434,13.8425364 65.1482745,14.5820692 C65.3011151,15.3216019 65.568586,15.9852852 65.9506873,16.5920813 C66.3136836,17.179915 66.9059406,17.729824 67.6892483,18.2228459 C68.4916611,18.7158677 69.4660194,18.9623786 70.6123234,18.9623786 C72.3699894,18.9623786 73.99392,18.431432 75.445905,17.3505765 C75.5796405,17.2557646 75.732481,17.2178398 75.9235317,17.2178398 C76.1145823,17.2178398 76.2483178,17.2747269 76.3247381,17.3885012 L78.4836105,20.1949333 C78.5791358,20.3087075 78.5982409,20.4604066 78.5600308,20.6500303 C78.5218206,20.8396541 78.4262953,20.9913532 78.2925598,21.1051274 C77.6620927,21.6171117 76.878785,22.1480583 75.9617418,22.6790049 C75.0446986,23.2099515 74.0130251,23.6271238 72.8476161,23.9305218 C71.7013121,24.2339199 70.5741132,24.3856189 69.4469144,24.3856189 C67.7847736,24.3856189 66.2754734,24.0822209 64.8999087,23.4564624 C63.5243439,22.8307039 62.3589349,21.9773968 61.4227867,20.8586165 C60.4866385,19.7398362 59.8370662,18.4503944 59.47407,16.9713289 C59.1110737,15.473301 59.0728636,13.8994235 59.3594396,12.268659 Z" id="XMLID_1496_"></path>
                            <path d="M81.807892,23.3806129 L85.7817457,1.08085558 C85.8008507,0.929156553 85.896376,0.777457524 86.0683216,0.644720874 C86.2211622,0.511984223 86.3931078,0.436134709 86.5459483,0.436134709 L90.6153273,0.436134709 C90.7681678,0.436134709 90.9019033,0.511984223 91.0165337,0.644720874 C91.1311641,0.777457524 91.1693742,0.929156553 91.1502692,1.08085558 L87.1764155,23.3995752 C87.1573104,23.5512743 87.0617851,23.7029733 86.8898395,23.83571 C86.7369989,23.9684466 86.5650533,24.0442961 86.4122128,24.0442961 L82.3428338,24.0442961 C82.1899933,24.0442961 82.0562578,23.9684466 81.9416274,23.83571 C81.826997,23.6840109 81.7887869,23.5512743 81.807892,23.3806129 Z" id="XMLID_1494_"></path>
                            <path d="M115.299072,23.3806129 L119.272926,1.0618932 C119.292031,0.910194175 119.387556,0.758495146 119.540397,0.625758495 C119.693238,0.493021845 119.846078,0.41717233 120.037129,0.41717233 L124.087403,0.41717233 C124.240243,0.41717233 124.373979,0.493021845 124.488609,0.625758495 C124.603239,0.758495146 124.64145,0.910194175 124.622345,1.0618932 L121.431799,19.0571905 L129.513241,19.0571905 C129.704292,19.0571905 129.838027,19.13304 129.933553,19.2657767 C130.029078,19.3985133 130.067288,19.5502124 130.048183,19.7019114 L129.398611,23.3806129 C129.379506,23.5323119 129.283981,23.6840109 129.13114,23.8167476 C128.9783,23.9494842 128.825459,24.0253337 128.634408,24.0253337 L115.872224,24.0253337 C115.681174,24.0253337 115.547438,23.9494842 115.451913,23.8167476 C115.299072,23.6840109 115.260862,23.5512743 115.299072,23.3806129 Z" id="XMLID_1492_"></path>
                        </g>
                        <g id="Group" fill-rule="nonzero">
                            <g transform="translate(12.227242, 13.652913)" id="Shape">
                                <polygon points="11.5776699 3.71662621 8.57817457 3.71662621 8.13875805 0 6.2091464 3.71662621 1.06988369 3.71662621 3.0759156 5.02503034 3.11412573 5.02503034 3.11412573 5.02503034 6.094516 5.02503034 6.094516 4.83540655 6.094516 4.72163228 7.79486687 5.68871359 6.094516 6.6557949 6.094516 6.52305825 6.094516 6.33343447 6.094516 6.33343447 4.87179179 6.33343447 4.87179179 6.33343447 2.33081803 6.33343447 2.33081803 6.52305825 4.77626646 6.52305825 2.59828896 10.7137439 6.78229838 7.43325243 9.2277468 9.06401699 8.82654042 5.84041262"></polygon>
                            </g>
                            <path d="M1.58572047,24.1201456 C0.7833077,24.1201456 0.0955253292,23.4185376 0.0955253292,22.6410801 L0.0955253292,1.47906553 C0.0955253292,0.720570388 0.764202634,0.0948118932 1.58572047,0.0948118932 L17.3665049,0.0948118932 C17.7486062,0.0948118932 18.1116024,0.246510922 18.3790733,0.493021845 C18.6274392,0.739532767 18.7611747,1.09981796 18.7611747,1.47906553 L18.7611747,15.1888653 C18.7611747,15.5491505 18.4745987,15.8335862 18.1116024,15.8335862 C17.7486062,15.8335862 17.4620302,15.5491505 17.4620302,15.1888653 L17.4620302,1.47906553 C17.4620302,1.4221784 17.4429251,1.40321602 17.3665049,1.40321602 L1.58572047,1.40321602 C1.49019514,1.40321602 1.39466981,1.46010316 1.39466981,1.47906553 L1.39466981,22.6410801 C1.39466981,22.7169296 1.5093002,22.8307039 1.58572047,22.8307039 L13.4881765,22.8307039 C13.8511727,22.8307039 14.1377487,23.1151396 14.1377487,23.4754248 C14.1377487,23.83571 13.8511727,24.1201456 13.4881765,24.1201456 L1.58572047,24.1201456 L1.58572047,24.1201456 Z" id="Shape"></path>
                            <path d="M7.50829088,4.13379854 C7.14529463,4.13379854 6.85871864,3.84936286 6.85871864,3.48907767 C6.85871864,3.12879248 7.14529463,2.8443568 7.50829088,2.8443568 L11.4630395,2.8443568 C11.8260358,2.8443568 12.1126117,3.12879248 12.1126117,3.48907767 C12.1126117,3.84936286 11.8260358,4.13379854 11.4630395,4.13379854 L7.50829088,4.13379854 Z" id="Shape"></path>
                            <path d="M3.95474863,6.88334345 C3.59175238,6.88334345 3.30517639,6.59890777 3.30517639,6.23862257 C3.30517639,5.87833738 3.59175238,5.5939017 3.95474863,5.5939017 L15.0165818,5.5939017 C15.1885273,5.5939017 15.3604729,5.66975121 15.4751033,5.78352549 C15.5897337,5.91626214 15.666154,6.06796117 15.666154,6.23862257 C15.666154,6.59890777 15.379578,6.88334345 15.0165818,6.88334345 L3.95474863,6.88334345 Z" id="Shape"></path>
                            <path d="M3.95474863,9.61392597 C3.59175238,9.61392597 3.30517639,9.32949029 3.30517639,8.9692051 C3.30517639,8.6089199 3.59175238,8.32448422 3.95474863,8.32448422 L15.0165818,8.32448422 C15.1885273,8.32448422 15.3604729,8.40033374 15.4751033,8.51410801 C15.5897337,8.64684466 15.666154,8.79854369 15.666154,8.9692051 C15.666154,9.32949029 15.379578,9.61392597 15.0165818,9.61392597 L3.95474863,9.61392597 Z" id="Shape"></path>
                            <path d="M3.95474863,12.3634709 C3.59175238,12.3634709 3.30517639,12.0790352 3.30517639,11.71875 C3.30517639,11.3584648 3.59175238,11.0740291 3.95474863,11.0740291 L15.0165818,11.0740291 C15.1885273,11.0740291 15.3604729,11.1498786 15.4751033,11.2636529 C15.5897337,11.3963896 15.666154,11.5480886 15.666154,11.71875 C15.666154,12.0790352 15.379578,12.3634709 15.0165818,12.3634709 L3.95474863,12.3634709 Z" id="Shape"></path>
                            <path d="M3.95474863,20.9913532 C3.59175238,20.9913532 3.24786119,20.6500303 3.24786119,20.2897451 L3.24786119,14.4114078 C3.24786119,14.0321602 3.61085744,13.8046117 3.95474863,13.8046117 L15.0165818,13.8046117 C15.379578,13.8046117 15.6279439,14.0511226 15.6279439,14.4114078 L15.6279439,16.3834951 C15.6279439,16.7437803 15.3413679,17.028216 14.9783716,17.028216 C14.6153754,17.028216 14.3287994,16.7437803 14.3287994,16.3834951 L14.3287994,15.1319782 L4.5852158,15.1319782 L4.5852158,19.7019114 L11.8451408,19.7019114 C12.2081371,19.7019114 12.4947131,19.9863471 12.4947131,20.3466323 C12.4947131,20.7069175 12.2081371,20.9913532 11.8451408,20.9913532 L3.95474863,20.9913532 L3.95474863,20.9913532 Z" id="Shape"></path>
                        </g>
                    </g>
                </g>
            </g>
        </g>
    </g>
</svg>