<?xml version="1.0" encoding="UTF-8" standalone="no"?>
<svg width="17px" height="15px" viewBox="0 0 17 15" version="1.1" xmlns="http://www.w3.org/2000/svg" xmlns:xlink="http://www.w3.org/1999/xlink">
    <!-- Generator: Sketch 46.2 (44496) - http://www.bohemiancoding.com/sketch -->
    <title>Shape</title>
    <desc>Created with Sketch.</desc>
    <defs></defs>
    <g id="Desktop_Detail" stroke="none" stroke-width="1" fill="none" fill-rule="evenodd">
        <g transform="translate(-988.000000, -2958.000000)" id="body" fill="#9B9B9B">
            <g transform="translate(410.000000, 514.000000)">
                <g id="main-content" transform="translate(30.000000, 81.000000)">
                    <g id="pvien" transform="translate(548.000000, 2363.000000)">
                        <g id="translate">
                            <path d="M0,11.8333333 L0,15 L3.16666667,15 L12.3333333,5.75 L9.16666667,2.58333333 L0,11.8333333 L0,11.8333333 Z M14.75,3.33333333 C15.0833333,3 15.0833333,2.5 14.75,2.16666667 L12.8333333,0.25 C12.5,-0.0833333333 12,-0.0833333333 11.6666667,0.25 L10.1666667,1.75 L13.3333333,4.91666667 L14.75,3.33333333 L14.75,3.33333333 Z M7.5,13.3333333 L5.83333333,15 L16.6666667,15 L16.6666667,13.3333333 L7.5,13.3333333 L7.5,13.3333333 Z" id="Shape"></path>
                        </g>
                    </g>
                </g>
            </g>
        </g>
    </g>
</svg>