<?xml version="1.0" encoding="UTF-8" standalone="no"?>
<svg width="16px" height="17px" viewBox="0 0 16 17" version="1.1" xmlns="http://www.w3.org/2000/svg" xmlns:xlink="http://www.w3.org/1999/xlink">
    <!-- Generator: Sketch 46.2 (44496) - http://www.bohemiancoding.com/sketch -->
    <title></title>
    <desc>Created with Sketch.</desc>
    <defs></defs>
    <g id="trang-chu" stroke="none" stroke-width="1" fill="none" fill-rule="evenodd">
        <g id="saostar-pc-home.menu" transform="translate(-1323.000000, -695.000000)" fill="#FFFFFF">
            <g id="menu-category" transform="translate(460.000000, 219.000000)">
                <path d="M872.802455,488.659598 L872.802455,487.082589 C872.802455,486.747766 872.705358,486.580357 872.511161,486.580357 C872.397321,486.580357 872.286831,486.633928 872.179688,486.741071 L872.179688,488.991071 C872.286831,489.098215 872.397321,489.151786 872.511161,489.151786 C872.705358,489.151786 872.802455,488.987725 872.802455,488.659598 Z M874.65067,487.434152 L875.313616,487.434152 L875.313616,487.092634 C875.313616,486.751114 875.203126,486.580357 874.982143,486.580357 C874.76116,486.580357 874.65067,486.751114 874.65067,487.092634 L874.65067,487.434152 Z M868.915179,484.762277 L868.915179,485.465402 L868.111607,485.465402 L868.111607,489.714286 L867.368304,489.714286 L867.368304,485.465402 L866.584821,485.465402 L866.584821,484.762277 L868.915179,484.762277 Z M870.934152,486.027902 L870.934152,489.714286 L870.261161,489.714286 L870.261161,489.3125 C869.999999,489.613841 869.745537,489.764509 869.497768,489.764509 C869.276785,489.764509 869.136161,489.67076 869.075893,489.483259 C869.035714,489.376116 869.015625,489.195314 869.015625,488.940848 L869.015625,486.027902 L869.678571,486.027902 L869.678571,488.739955 C869.678571,488.90067 869.68192,488.987723 869.688616,489.001116 C869.695313,489.101563 869.745535,489.151786 869.839286,489.151786 C869.973215,489.151786 870.113839,489.047992 870.261161,488.840402 L870.261161,486.027902 L870.934152,486.027902 Z M873.465402,487.142857 L873.465402,488.609375 C873.465402,488.957591 873.441965,489.202008 873.395089,489.342634 C873.314732,489.623885 873.137278,489.764509 872.862723,489.764509 C872.628347,489.764509 872.400671,489.627234 872.179688,489.352679 L872.179688,489.714286 L871.506696,489.714286 L871.506696,484.762277 L872.179688,484.762277 L872.179688,486.379464 C872.393974,486.111606 872.621651,485.977679 872.862723,485.977679 C873.137278,485.977679 873.314732,486.118302 873.395089,486.399554 C873.441965,486.540179 873.465402,486.787945 873.465402,487.142857 Z M875.986607,488.438616 L875.986607,488.529018 C875.986607,488.723215 875.979911,488.867187 875.966518,488.960938 C875.946428,489.10826 875.896206,489.242187 875.815848,489.362723 C875.635044,489.630582 875.367189,489.764509 875.012277,489.764509 C874.664061,489.764509 874.392858,489.637278 874.198661,489.382812 C874.058035,489.202008 873.987723,488.914064 873.987723,488.518973 L873.987723,487.223214 C873.987723,486.828123 874.054687,486.540179 874.188616,486.359375 C874.382813,486.104909 874.650668,485.977679 874.992188,485.977679 C875.333707,485.977679 875.594865,486.104909 875.77567,486.359375 C875.916295,486.546876 875.986607,486.834819 875.986607,487.223214 L875.986607,487.986607 L874.65067,487.986607 L874.65067,488.639509 C874.65067,488.981028 874.764508,489.151786 874.992188,489.151786 C875.152903,489.151786 875.253348,489.064733 875.293527,488.890625 C875.293527,488.883929 875.295201,488.860491 875.298549,488.820312 C875.301897,488.780134 875.303571,488.724889 875.303571,488.654576 L875.303571,488.438616 L875.986607,488.438616 Z M871.456473,480.16183 L871.456473,481.728795 C871.456473,482.070314 871.349331,482.241071 871.135045,482.241071 C870.920758,482.241071 870.813616,482.070314 870.813616,481.728795 L870.813616,480.16183 C870.813616,479.813614 870.920758,479.639509 871.135045,479.639509 C871.349331,479.639509 871.456473,479.813614 871.456473,480.16183 Z M876.810268,487.323661 C876.810268,486.138387 876.746652,485.26786 876.61942,484.712054 C876.552455,484.417409 876.408483,484.171318 876.1875,483.973772 C875.966517,483.776227 875.712055,483.660714 875.424107,483.627232 C874.513388,483.526785 873.133938,483.476562 871.285714,483.476562 C869.444187,483.476562 868.068085,483.526785 867.157366,483.627232 C866.862722,483.660714 866.606586,483.776227 866.388951,483.973772 C866.171316,484.171318 866.029018,484.417409 865.962054,484.712054 C865.828124,485.294646 865.761161,486.165173 865.761161,487.323661 C865.761161,488.502238 865.828124,489.372765 865.962054,489.935268 C866.029018,490.223216 866.171316,490.467633 866.388951,490.668527 C866.606586,490.869421 866.859374,490.986607 867.147321,491.020089 C868.064737,491.120536 869.444187,491.170759 871.285714,491.170759 C873.127241,491.170759 874.506692,491.120536 875.424107,491.020089 C875.712055,490.986607 875.964843,490.869421 876.182478,490.668527 C876.400113,490.467633 876.54241,490.223216 876.609375,489.935268 C876.743304,489.372765 876.810268,488.502238 876.810268,487.323661 Z M869.226562,480.784598 L870.13058,477.811384 L869.377232,477.811384 L868.864955,479.770089 L868.332589,477.811384 L867.549107,477.811384 L867.790179,478.504464 C867.897322,478.812502 867.97433,479.043526 868.021205,479.197545 C868.255582,479.88728 868.409598,480.416293 868.483259,480.784598 L868.483259,482.803571 L869.226562,482.803571 L869.226562,480.784598 Z M872.129464,481.598214 L872.129464,480.292411 C872.129464,479.904016 872.059152,479.612724 871.918527,479.418527 C871.724329,479.164061 871.463171,479.03683 871.135045,479.03683 C870.793525,479.03683 870.532367,479.164061 870.351562,479.418527 C870.210937,479.612724 870.140625,479.904016 870.140625,480.292411 L870.140625,481.598214 C870.140625,481.986609 870.210937,482.277901 870.351562,482.472098 C870.532367,482.726564 870.793525,482.853795 871.135045,482.853795 C871.463171,482.853795 871.724329,482.726564 871.918527,482.472098 C872.059152,482.291294 872.129464,482.000002 872.129464,481.598214 Z M873.947545,482.803571 L874.620536,482.803571 L874.620536,479.087054 L873.947545,479.087054 L873.947545,481.929688 C873.800222,482.137278 873.659599,482.241071 873.52567,482.241071 C873.425223,482.241071 873.371652,482.187501 873.364955,482.080357 C873.358259,482.066964 873.354911,481.979912 873.354911,481.819196 L873.354911,479.087054 L872.68192,479.087054 L872.68192,482.030134 C872.68192,482.277903 872.702009,482.462053 872.742188,482.582589 C872.815849,482.763394 872.95982,482.853795 873.174107,482.853795 C873.41518,482.853795 873.67299,482.703127 873.947545,482.401786 L873.947545,482.803571 Z M879,479.75 L879,489.392857 C879,490.189736 878.717079,490.871091 878.151228,491.436942 C877.585377,492.002793 876.904022,492.285714 876.107143,492.285714 L866.464286,492.285714 C865.667407,492.285714 864.986052,492.002793 864.420201,491.436942 C863.85435,490.871091 863.571429,490.189736 863.571429,489.392857 L863.571429,479.75 C863.571429,478.953121 863.85435,478.271766 864.420201,477.705915 C864.986052,477.140064 865.667407,476.857143 866.464286,476.857143 L876.107143,476.857143 C876.904022,476.857143 877.585377,477.140064 878.151228,477.705915 C878.717079,478.271766 879,478.953121 879,479.75 Z" id=""></path>
            </g>
        </g>
    </g>
</svg>