<?xml version="1.0" encoding="UTF-8" standalone="no"?>
<svg width="11px" height="11px" viewBox="0 0 11 11" version="1.1" xmlns="http://www.w3.org/2000/svg" xmlns:xlink="http://www.w3.org/1999/xlink">
    <!-- Generator: Sketch 46.2 (44496) - http://www.bohemiancoding.com/sketch -->
    <title></title>
    <desc>Created with Sketch.</desc>
    <defs></defs>
    <g id="trang-chu" stroke="none" stroke-width="1" fill="none" fill-rule="evenodd">
        <g id="saostar-pc-home" transform="translate(-903.000000, -5845.000000)" fill="#FFFFFF">
            <g id="quagiang" transform="translate(435.000000, 5369.000000)">
                <g id="share" transform="translate(445.000000, 348.000000)">
                    <g id="Group" transform="translate(0.000000, 120.000000)">
                        <g id="link-share" transform="translate(0.000000, 1.000000)">
                            <g id="share_active">
                                <path d="M31.5960265,13.3214286 C32.1897795,13.3214286 32.6953548,13.5301318 33.1127676,13.9475446 C33.5301804,14.3649574 33.7388836,14.8705327 33.7388836,15.4642857 C33.7388836,16.0580387 33.5301804,16.563614 33.1127676,16.9810268 C32.6953548,17.3984396 32.1897795,17.6071429 31.5960265,17.6071429 C31.0022735,17.6071429 30.4966982,17.3984396 30.0792854,16.9810268 C29.6618726,16.563614 29.4531693,16.0580387 29.4531693,15.4642857 C29.4531693,15.410714 29.4576336,15.3348219 29.4665622,15.2366071 L27.0558479,14.03125 C26.6451316,14.4151805 26.1585293,14.6071429 25.5960265,14.6071429 C25.0022735,14.6071429 24.4966982,14.3984396 24.0792854,13.9810268 C23.6618726,13.563614 23.4531693,13.0580387 23.4531693,12.4642857 C23.4531693,11.8705327 23.6618726,11.3649574 24.0792854,10.9475446 C24.4966982,10.5301318 25.0022735,10.3214286 25.5960265,10.3214286 C26.1585293,10.3214286 26.6451316,10.5133909 27.0558479,10.8973214 L29.4665622,9.69196429 C29.4576336,9.59374951 29.4531693,9.51785741 29.4531693,9.46428571 C29.4531693,8.87053275 29.6618726,8.36495744 30.0792854,7.94754464 C30.4966982,7.53013184 31.0022735,7.32142857 31.5960265,7.32142857 C32.1897795,7.32142857 32.6953548,7.53013184 33.1127676,7.94754464 C33.5301804,8.36495744 33.7388836,8.87053275 33.7388836,9.46428571 C33.7388836,10.0580387 33.5301804,10.563614 33.1127676,10.9810268 C32.6953548,11.3984396 32.1897795,11.6071429 31.5960265,11.6071429 C31.0335237,11.6071429 30.5469214,11.4151805 30.1362051,11.03125 L27.7254908,12.2366071 C27.7344194,12.3348219 27.7388836,12.410714 27.7388836,12.4642857 C27.7388836,12.5178574 27.7344194,12.5937495 27.7254908,12.6919643 L30.1362051,13.8973214 C30.5469214,13.5133909 31.0335237,13.3214286 31.5960265,13.3214286 Z" id=""></path>
                            </g>
                        </g>
                    </g>
                </g>
            </g>
        </g>
    </g>
</svg>