<?xml version="1.0" encoding="UTF-8" standalone="no"?>
<svg width="16px" height="16px" viewBox="0 0 16 16" version="1.1" xmlns="http://www.w3.org/2000/svg" xmlns:xlink="http://www.w3.org/1999/xlink">
    <!-- Generator: Sketch 46.2 (44496) - http://www.bohemiancoding.com/sketch -->
    <title></title>
    <desc>Created with Sketch.</desc>
    <defs></defs>
    <g id="Desktop_Detail" stroke="none" stroke-width="1" fill="none" fill-rule="evenodd">
        <g transform="translate(-460.000000, -5273.000000)" id="mess" fill="#FFFFFF">
            <g transform="translate(450.000000, 5263.000000)">
                <path d="M17.7923415,10 C19.1985881,10 20.4993663,10.328124 21.6946759,10.9843727 C22.8899856,11.6406213 23.8392021,12.5253844 24.5423254,13.6386632 C25.2454487,14.751942 25.5970104,15.9648297 25.5970104,17.2773264 C25.5970104,18.8710724 25.0931055,20.3007567 24.0852952,21.5663787 C23.1477973,22.7851259 21.9056129,23.652311 20.3587416,24.167935 C18.7884327,24.6835589 17.1829681,24.7187151 15.5423468,24.2734035 L12.9056344,25.7499624 L12.9056344,22.9726253 C11.5228254,21.9179403 10.6322021,20.6288807 10.2337658,19.105447 C9.85876647,17.6992004 9.93493834,16.2870942 10.4622808,14.869129 C10.9896233,13.4511638 11.8861056,12.2968693 13.1517275,11.4062466 C14.4876619,10.4687487 16.0345332,10 17.7923415,10 Z M18.6009333,19.7734142 L22.8899856,15.2734249 L18.9876511,17.4179511 L16.9837497,15.3085811 L12.7298536,19.8437265 L16.5970318,17.6640442 L18.6009333,19.7734142 Z" id=""></path>
            </g>
        </g>
    </g>
</svg>