<?xml version="1.0" encoding="UTF-8" standalone="no"?>
<svg width="10px" height="19px" viewBox="0 0 10 19" version="1.1" xmlns="http://www.w3.org/2000/svg" xmlns:xlink="http://www.w3.org/1999/xlink">
    <!-- Generator: Sketch 46.2 (44496) - http://www.bohemiancoding.com/sketch -->
    <title></title>
    <desc>Created with Sketch.</desc>
    <defs></defs>
    <g id="Desktop_Detail" stroke="none" stroke-width="1" fill="none" fill-rule="evenodd">
        <g transform="translate(-463.000000, -818.000000)" id="body" fill="#9B9B9B">
            <g transform="translate(410.000000, 514.000000)">
                <g id="main-content" transform="translate(30.000000, 81.000000)">
                    <g id="facebook" transform="translate(10.000000, 214.000000)">
                        <path d="M15.8002736,27.6200008 L19.2187893,27.6200008 L19.2187893,19.2919145 L21.8735941,19.2919145 L22.3100004,15.9825003 L19.2187893,15.9825003 L19.2187893,13.6913674 C19.2187893,13.1579818 19.3157687,12.7700655 19.5097269,12.5276173 C19.752175,12.2366798 20.2007034,12.0912111 20.8553129,12.0912111 L22.6009379,12.0912111 L22.6009379,9.14546876 C21.9463285,9.0484894 21.097761,9 20.0552347,9 C18.7702609,9 17.7398568,9.38185549 16.9640236,10.1455665 C16.1881904,10.9092774 15.8002736,11.9821095 15.8002736,13.3640627 L15.8002736,15.9825003 L13,15.9825003 L13,19.2919145 L15.8002736,19.2919145 L15.8002736,27.6200008 Z" id=""></path>
                    </g>
                </g>
            </g>
        </g>
    </g>
</svg>