<?xml version="1.0" encoding="UTF-8" standalone="no"?>
<svg width="11px" height="11px" viewBox="0 0 11 11" version="1.1" xmlns="http://www.w3.org/2000/svg" xmlns:xlink="http://www.w3.org/1999/xlink">
    <!-- Generator: Sketch 46.2 (44496) - http://www.bohemiancoding.com/sketch -->
    <title></title>
    <desc>Created with Sketch.</desc>
    <defs></defs>
    <g id="trang-chu" stroke="none" stroke-width="1" fill="none" fill-rule="evenodd">
        <g id="saostar-pc-home" transform="translate(-1021.000000, -3121.000000)" fill="#9B9B9B">
            <g id="must-watch" transform="translate(458.000000, 2641.000000)">
                <g id="share" transform="translate(540.000000, 353.000000)">
                    <g id="Group" transform="translate(0.000000, 120.000000)">
                        <g id="link-share" transform="translate(0.000000, 1.000000)">
                            <g id="share" transform="translate(23.000000, 3.000000)">
                                <path d="M8.59602649,9.32142857 C9.18977946,9.32142857 9.69535476,9.53013184 10.1127676,9.94754464 C10.5301804,10.3649574 10.7388836,10.8705327 10.7388836,11.4642857 C10.7388836,12.0580387 10.5301804,12.563614 10.1127676,12.9810268 C9.69535476,13.3984396 9.18977946,13.6071429 8.59602649,13.6071429 C8.00227352,13.6071429 7.49669822,13.3984396 7.07928542,12.9810268 C6.66187262,12.563614 6.45316935,12.0580387 6.45316935,11.4642857 C6.45316935,11.410714 6.45763359,11.3348219 6.4665622,11.2366071 L4.05584792,10.03125 C3.64513158,10.4151805 3.1585293,10.6071429 2.59602649,10.6071429 C2.00227352,10.6071429 1.49669822,10.3984396 1.07928542,9.98102679 C0.661872617,9.56361398 0.453169347,9.05803868 0.453169347,8.46428571 C0.453169347,7.87053275 0.661872617,7.36495744 1.07928542,6.94754464 C1.49669822,6.53013184 2.00227352,6.32142857 2.59602649,6.32142857 C3.1585293,6.32142857 3.64513158,6.51339094 4.05584792,6.89732143 L6.4665622,5.69196429 C6.45763359,5.59374951 6.45316935,5.51785741 6.45316935,5.46428571 C6.45316935,4.87053275 6.66187262,4.36495744 7.07928542,3.94754464 C7.49669822,3.53013184 8.00227352,3.32142857 8.59602649,3.32142857 C9.18977946,3.32142857 9.69535476,3.53013184 10.1127676,3.94754464 C10.5301804,4.36495744 10.7388836,4.87053275 10.7388836,5.46428571 C10.7388836,6.05803868 10.5301804,6.56361398 10.1127676,6.98102679 C9.69535476,7.39843959 9.18977946,7.60714286 8.59602649,7.60714286 C8.03352368,7.60714286 7.5469214,7.41518049 7.13620506,7.03125 L4.72549078,8.23660714 C4.73441939,8.33482192 4.73888363,8.41071402 4.73888363,8.46428571 C4.73888363,8.51785741 4.73441939,8.59374951 4.72549078,8.69196429 L7.13620506,9.89732143 C7.5469214,9.51339094 8.03352368,9.32142857 8.59602649,9.32142857 Z" id=""></path>
                            </g>
                        </g>
                    </g>
                </g>
            </g>
        </g>
    </g>
</svg>