<?xml version="1.0" encoding="UTF-8" standalone="no"?>
<svg width="185px" height="42px" viewBox="0 0 185 42" version="1.1" xmlns="http://www.w3.org/2000/svg" xmlns:xlink="http://www.w3.org/1999/xlink">
    <!-- Generator: Sketch 46.2 (44496) - http://www.bohemiancoding.com/sketch -->
    <title>sns copy</title>
    <desc>Created with Sketch.</desc>
    <defs>
        <filter x="-3.7%" y="-15.7%" width="107.3%" height="137.1%" filterUnits="objectBoundingBox" id="filter-1">
            <feOffset dx="0" dy="1" in="SourceAlpha" result="shadowOffsetOuter1"></feOffset>
            <feGaussianBlur stdDeviation="2" in="shadowOffsetOuter1" result="shadowBlurOuter1"></feGaussianBlur>
            <feColorMatrix values="0 0 0 0 0   0 0 0 0 0   0 0 0 0 0  0 0 0 0.283401268 0" type="matrix" in="shadowBlurOuter1" result="shadowMatrixOuter1"></feColorMatrix>
            <feMerge>
                <feMergeNode in="shadowMatrixOuter1"></feMergeNode>
                <feMergeNode in="SourceGraphic"></feMergeNode>
            </feMerge>
        </filter>
        <polygon id="path-2" points="32.3427322 0.555371901 0.240953557 0.555371901 0.240953557 30.9567769 32.3427322 30.9567769 32.3427322 0.555371901"></polygon>
    </defs>
    <g id="Page-1" stroke="none" stroke-width="1" fill="none" fill-rule="evenodd">
        <g id="mobi-sinnnhat-new" transform="translate(-95.000000, -5.000000)">
            <g id="header-qua-giang-copy">
                <g id="sns-copy" filter="url(#filter-1)" transform="translate(99.000000, 7.000000)">
                    <path d="M170.640323,25.4729567 C169.731613,26.4701811 168.544427,26.9485598 167.122735,26.9485598 C165.701043,26.9485598 164.513857,26.4701811 163.619804,25.4729567 C162.711093,24.5046374 162.242082,23.2631653 162.242082,21.7601024 C162.242082,20.2844994 162.711093,19.070487 163.619804,18.1021677 C164.513857,17.1063886 165.701043,16.6294551 167.122735,16.6294551 C168.544427,16.6294551 169.731613,17.1063886 170.654979,18.1021677 C171.56369,19.070487 172.003388,20.2844994 172.003388,21.7601024 C172.003388,23.2631653 171.534376,24.5046374 170.640323,25.4729567 M173.982031,15.2261147 C172.662936,13.8964822 171.065365,13.0582356 169.174661,12.7272727 L159.090909,19.9376387 L162.388648,29.9243352 C163.751713,30.6614141 165.319971,31.0227273 167.122735,31.0227273 C169.936805,31.0227273 172.208581,30.1411231 173.982031,28.3490097 C175.711512,26.6306042 176.590909,24.4323747 176.590909,21.7601024 C176.590909,19.1427497 175.711512,16.9474108 173.982031,15.2261147" id="Fill-1" fill="#FFFFFF"></path>
                    <path d="M11.214927,15.5997578 C11.437991,15.9790347 11.6343996,16.3812112 11.7592593,16.8105812 L8.25056117,18.447912 C8.1523569,18.2217771 8.05274972,18.018542 7.95454545,17.8425003 C7.83108866,17.6163655 7.68237935,17.4403238 7.53367003,17.2886131 C7.13945006,16.9107675 6.6456229,16.7089636 6.07603816,16.7089636 C5.65656566,16.7089636 5.33670034,16.8105812 5.08838384,17.036716 C4.84147026,17.2628509 4.71801347,17.5662723 4.71801347,17.8940247 C4.71801347,18.3978188 5.08838384,18.8758507 5.8543771,19.3295517 C6.10129068,19.4812624 6.47166105,19.6830663 6.99074074,19.9106324 L7.65712682,20.2126226 L8.32491582,20.5389438 C10.7210999,21.7497671 11.9318182,23.3870979 11.9318182,25.4280365 C11.9318182,27.0925608 11.3888889,28.4279014 10.325477,29.4354896 C9.21436588,30.4946022 7.7328844,31.0227273 5.87962963,31.0227273 C4.17508418,31.0227273 2.76655443,30.4946022 1.65544332,29.4097274 C1.2345679,29.0333131 0.864197531,28.5538499 0.568181818,28.0257249 C0.321268238,27.6206859 0.12345679,27.2185093 0,26.8149015 L3.5325477,25.02586 C4.12598204,26.3368696 4.99017957,26.9909432 6.12654321,26.9909432 C7.13945006,26.9909432 7.65712682,26.5887667 7.65712682,25.7572202 C7.65712682,25.2519948 7.28815937,24.7739629 6.54601571,24.344593 C6.29910213,24.1943135 5.90347924,23.9925096 5.38580247,23.7391813 L4.74326599,23.4386223 L4.07547699,23.1108699 C1.67929293,21.8256225 0.49382716,20.111005 0.49382716,17.9684489 C0.49382716,16.3812112 1.01290685,15.1217259 2.0496633,14.1642309 C3.08782267,13.2053046 4.47109989,12.7272727 6.17564534,12.7272727 C7.78198653,12.7272727 9.14001122,13.2310668 10.2020202,14.2644172 C10.5976431,14.6422628 10.9441639,15.0959637 11.214927,15.5997578" id="Fill-3" fill="#FFFFFF"></path>
                    <polygon id="Fill-5" fill="#FFFFFF" points="24.9274152 19.5023823 24.9274152 30.2272727 20.6818182 30.2272727 20.6818182 12.7272727 25.0795562 12.7272727 31.5498575 23.5771024 31.5498575 12.7272727 35.7954545 12.7272727 35.7954545 30.2272727 31.498187 30.2272727"></polygon>
                    <polygon id="Fill-7" fill="#FFFFFF" points="54.0909091 30.2272727 49.7252952 30.2272727 49.7252952 23.3769158 43.3428866 23.3769158 43.3428866 30.2272727 38.9772727 30.2272727 38.9772727 12.7272727 43.3428866 12.7272727 43.3428866 19.527938 49.7252952 19.527938 49.7252952 12.7272727 54.0909091 12.7272727"></polygon>
                    <polygon id="Fill-9" fill="#FFFFFF" points="66.2910515 19.5023823 66.2910515 30.2272727 62.0454545 30.2272727 62.0454545 12.7272727 66.4431926 12.7272727 72.9134939 23.5771024 72.9134939 12.7272727 77.1590909 12.7272727 77.1590909 30.2272727 72.8618234 30.2272727"></polygon>
                    <polygon id="Fill-11" fill="#FFFFFF" points="94.6590909 30.2272727 90.293477 30.2272727 90.293477 23.3769158 83.9110684 23.3769158 83.9110684 30.2272727 79.5454545 30.2272727 79.5454545 12.7272727 83.9110684 12.7272727 83.9110684 19.527938 90.293477 19.527938 90.293477 12.7272727 94.6590909 12.7272727"></polygon>
                    <path d="M103.092964,33.518775 C103.092964,33.0910873 103.244394,32.7403834 103.545828,32.4652376 C103.822975,32.163005 104.174409,32.0118887 104.602987,32.0118887 C105.004422,32.0118887 105.357284,32.163005 105.658718,32.4652376 C105.96158,32.7403834 106.111582,33.0910873 106.111582,33.518775 C106.111582,33.9193758 105.96158,34.2715053 105.658718,34.5723123 C105.357284,34.8503093 105.004422,35 104.602987,35 C104.174409,35 103.822975,34.8503093 103.545828,34.5723123 C103.244394,34.2715053 103.092964,33.9193758 103.092964,33.518775 L103.092964,33.518775 Z M104.602987,17.2766223 L102.942961,22.8508185 L106.263013,22.8508185 L104.602987,17.2766223 Z M105.935865,9.54545455 L107.470174,11.8293068 L105.257283,11.8293068 L104.602987,10.8000051 L103.948691,11.8293068 L101.734371,11.8293068 L103.244394,9.54545455 L105.935865,9.54545455 Z M101.835801,26.36356 L100.57721,30.3054148 L96.25,30.3054148 L102.338666,12.7331534 L106.867308,12.7331534 L112.954545,30.3054148 L108.627335,30.3054148 L107.370173,26.36356 L101.835801,26.36356 Z" id="Fill-13" fill="#FFFFFF"></path>
                    <polygon id="Fill-15" fill="#FFFFFF" points="120.281724 16.5521145 120.281724 30.2272727 115.968276 30.2272727 115.968276 16.5521145 112.159091 16.5521145 112.159091 12.7272727 124.090909 12.7272727 124.090909 16.5521145"></polygon>
                    <path d="M138.778743,20.3776496 L138.104947,20.0431274 L137.445187,19.7376941 C136.925802,19.5035286 136.560829,19.3013609 136.308155,19.1399175 C135.536096,18.6759498 135.171123,18.1959832 135.171123,17.6854733 C135.171123,17.3524055 135.29746,17.0469722 135.536096,16.8142611 C135.78877,16.5815501 136.111631,16.4782845 136.532754,16.4782845 C137.094251,16.4782845 137.599599,16.6833612 137.992647,17.0615167 C138.133021,17.2215055 138.287433,17.3960389 138.41377,17.6287499 C138.512032,17.8178277 138.610294,18.0214499 138.708556,18.254161 L140.659759,17.3218622 L134.553476,12.7272727 C133.76738,12.9585294 133.079545,13.3526838 132.504011,13.8908281 C131.465241,14.8653058 130.945856,16.1452168 130.945856,17.7596499 C130.945856,19.9413163 132.125,21.672105 134.525401,22.9811049 L135.199198,23.3156271 L135.84492,23.6196059 C136.350267,23.8828603 136.757353,24.0864825 136.995989,24.2464714 C137.739973,24.6828047 138.104947,25.1627713 138.104947,25.6718268 C138.104947,26.5154045 137.599599,26.9226489 136.574866,26.9226489 C135.437834,26.9226489 134.581551,26.2681489 133.977941,24.9300602 L130.454545,26.7481155 C130.566845,27.1553599 130.777406,27.5626043 131.016043,27.9829387 C131.310829,28.5225376 131.68984,29.0025042 132.110963,29.3806597 C133.21992,30.4860373 134.623663,31.0227273 136.33623,31.0227273 C138.189171,31.0227273 139.663102,30.4860373 140.786096,29.4097486 C140.926471,29.2643041 141.066845,29.1188597 141.193182,28.9734153 L142.386364,25.1627713 C142.316176,23.1701826 141.108957,21.5688395 138.778743,20.3776496" id="Fill-17" fill="#FFFFFF"></path>
                    <g id="Group-21" transform="translate(136.022727, 0.000000)">
                        <mask id="mask-3" fill="white">
                            <use xlink:href="#path-2"></use>
                        </mask>
                        <g id="Clip-20"></g>
                        <path d="M19.3277125,18.223719 L21.2015267,23.9669008 L16.2918429,20.4235124 L11.3676334,23.9669008 L13.2559733,18.223719 L8.34628953,14.6658678 L14.4180287,14.6658678 L16.2918429,8.9111157 L18.1656571,14.6658678 L24.2373962,14.6658678 L19.3277125,18.223719 Z M31.9650642,12.4443802 L32.3427322,12.1681405 L20.0830484,12.1681405 L16.2918429,0.554504132 L12.5006374,12.1681405 L0.240953557,12.1681405 L0.633147233,12.458843 L6.4724753,16.6819835 L10.162001,19.3416942 L6.37079545,30.9567769 L16.2918429,23.7832231 L26.2128903,30.9567769 L25.4139773,28.5270248 L22.6540958,20.0648347 L22.4216848,19.3416942 L22.8719812,19.0104959 L31.9650642,12.4443802 Z" id="Fill-19" fill="#FFBF00" mask="url(#mask-3)"></path>
                    </g>
                    <polygon id="Fill-22" fill="#FFFFFF" points="14.3181818 28.6363636 17.5 27.5752184 17.5 25.4545455 14.3181818 26.5156907"></polygon>
                    <polygon id="Fill-24" fill="#FFFFFF" points="14.3181818 23.8636364 17.5 22.8024911 17.5 20.6818182 14.3181818 21.7429634"></polygon>
                    <polygon id="Fill-26" fill="#FFFFFF" points="14.3181818 26.25 17.5 25.1904723 17.5 23.0681818 14.3181818 24.1293271"></polygon>
                    <polygon id="Fill-28" fill="#FFFFFF" points="17.5 12.7272727 14.3181818 12.7272727 14.3181818 15.1136364 17.5 14.2154984"></polygon>
                    <polygon id="Fill-30" fill="#FFFFFF" points="17.5 15.1136364 14.3181818 16.1747816 14.3181818 18.2954545 17.5 17.2343093"></polygon>
                    <polygon id="Fill-32" fill="#FFFFFF" points="14.3181818 18.5595277 14.3181818 20.6818182 17.5 19.6190553 17.5 17.5"></polygon>
                    <polygon id="Fill-34" fill="#FFFFFF" points="14.3181818 31.0227273 17.5 31.0227273 17.5 28.6363636 14.3181818 29.7434743"></polygon>
                    <path d="M17.5,10.2885114 C17.5,11.1968066 16.7877988,11.9318182 15.9090909,11.9318182 C15.030383,11.9318182 14.3181818,11.1968066 14.3181818,10.2885114 C14.3181818,9.38166022 15.9090909,6.36363636 15.9090909,6.36363636 C15.9090909,6.36363636 17.5,9.38166022 17.5,10.2885114" id="Fill-36" fill="#FFBF00"></path>
                    <path d="M16.7045455,9.94318182 C16.7045455,10.6020196 16.169888,11.1363636 15.5106638,11.1363636 C14.8528392,11.1363636 14.3181818,10.6020196 14.3181818,9.94318182 C14.3181818,9.28434403 14.8528392,8.75 15.5106638,8.75 C16.169888,8.75 16.7045455,9.28434403 16.7045455,9.94318182" id="Fill-38" fill="#FFE100"></path>
                </g>
            </g>
        </g>
    </g>
</svg>