<?xml version="1.0" encoding="UTF-8" standalone="no"?>
<svg width="55px" height="53px" viewBox="0 0 55 53" version="1.1" xmlns="http://www.w3.org/2000/svg" xmlns:xlink="http://www.w3.org/1999/xlink">
    <!-- Generator: Sketch 46.2 (44496) - http://www.bohemiancoding.com/sketch -->
    <title>candles</title>
    <desc>Created with Sketch.</desc>
    <defs>
        <polygon id="path-1" points="0.197314656 0.128338843 7.87304408 0.128338843 7.87304408 6.42823006 0.197314656 6.42823006 0.197314656 0.128338843"></polygon>
        <polygon id="path-3" points="0 3.4793077 0 0.346503867 3.12557166 0.346503867 3.12557166 3.4793077 9.01920682e-17 3.4793077"></polygon>
    </defs>
    <g id="Page-1" stroke="none" stroke-width="1" fill="none" fill-rule="evenodd">
        <g id="mobi-sinnnhat-new" transform="translate(-305.000000, -3385.000000)">
            <g id="11/1-copy-2" transform="translate(10.000000, 3373.000000)">
                <g id="date-info" transform="translate(6.000000, 0.000000)">
                    <g id="candles" transform="translate(289.000000, 12.000000)">
                        <g id="Page-1">
                            <path d="M10.4255119,29.4296736 L16.7020595,52.7575579" id="Stroke-1" stroke="#FFE200" stroke-width="2"></path>
                            <path d="M44.8052262,29.4296736 L38.5291151,52.7575579" id="Stroke-3" stroke="#FFE200" stroke-width="2"></path>
                            <path d="M21.6668571,24.1217455 L23.9755476,52.757514" id="Stroke-5" stroke="#FFE200" stroke-width="2"></path>
                            <path d="M33.9001667,24.1217455 L32.2414365,52.757514" id="Stroke-7" stroke="#FFE200" stroke-width="2"></path>
                            <path d="M8.79925794,21.2981595 L10.426123,23.1500934 C10.5775913,23.3226719 10.8045754,23.4093992 11.031996,23.3818041 L13.4746944,23.087019 C14.0482659,23.0178124 14.4524722,23.6389198 14.1578294,24.1382587 L12.9059246,26.2626388 C12.7889405,26.4610603 12.7767183,26.7045975 12.8731865,26.9130934 L13.9072738,29.1531099 C14.1504087,29.6796058 13.6864008,30.2569116 13.121996,30.1303248 L10.7216389,29.5920025 C10.4977103,29.5411926 10.2633056,29.605143 10.09525,29.7615149 L8.29203571,31.4404322 C7.86818651,31.8355231 7.17719444,31.5709612 7.12306746,30.9932174 L6.89171825,28.5359446 C6.87032937,28.306424 6.73719444,28.1027463 6.5368373,27.990176 L4.38878175,26.7882587 C3.88330556,26.506176 3.92040873,25.7650521 4.45120238,25.5346554 L6.70882143,24.5548124 C6.91921825,24.4632669 7.07199603,24.2736058 7.11651984,24.0471512 L7.59144048,21.6257959 C7.70318651,21.0563744 8.41687698,20.8627711 8.79925794,21.2981595" id="Fill-9" fill="#004EC6"></path>
                            <path d="M22.2683651,16.8812008 L23.3570159,19.0949364 C23.4587222,19.3012421 23.6551508,19.4444736 23.8821349,19.4777628 L26.3161032,19.8325562 C26.8888016,19.9162174 27.1170952,20.621424 26.7028492,21.0265893 L24.9415397,22.7488702 C24.7769762,22.9100603 24.7023333,23.1417711 24.7411825,23.3691017 L25.1567381,25.8014074 C25.2545159,26.373457 24.6565,26.8092835 24.1449127,26.5394653 L21.9676111,25.390986 C21.7646349,25.2836719 21.5215,25.2836719 21.3180873,25.390986 L19.1412222,26.5394653 C18.6291984,26.8092835 18.0311825,26.373457 18.1289603,25.8014074 L18.5449524,23.3691017 C18.5838016,23.1417711 18.5087222,22.9100603 18.3441587,22.7488702 L16.5828492,21.0265893 C16.1686032,20.621424 16.3973333,19.9162174 16.9691587,19.8325562 L19.404,19.4777628 C19.6305476,19.4444736 19.8269762,19.3012421 19.929119,19.0949364 L21.0173333,16.8812008 C21.2735635,16.3612752 22.0125714,16.3612752 22.2683651,16.8812008" id="Fill-11" fill="#FF0778"></path>
                            <path d="M34.4999722,16.8812008 L35.588623,19.0949364 C35.6907659,19.3012421 35.8867579,19.4444736 36.1137421,19.4777628 L38.5481468,19.8325562 C39.1204087,19.9162174 39.3487024,20.621424 38.9348929,21.0265893 L37.1731468,22.7488702 C37.0090198,22.9100603 36.9339405,23.1417711 36.9727897,23.3691017 L37.3883452,25.8014074 C37.4865595,26.373457 36.8885437,26.8092835 36.3765198,26.5394653 L34.1996548,25.390986 C33.9962421,25.2836719 33.7531071,25.2836719 33.550131,25.390986 L31.3728294,26.5394653 C30.8612421,26.8092835 30.2632262,26.373457 30.361004,25.8014074 L30.7765595,23.3691017 C30.8154087,23.1417711 30.7403294,22.9100603 30.5762024,22.7488702 L28.8144563,21.0265893 C28.4002103,20.621424 28.6289405,19.9162174 29.2007659,19.8325562 L31.6356071,19.4777628 C31.8625913,19.4444736 32.0590198,19.3012421 32.1607262,19.0949364 L33.249377,16.8812008 C33.5051706,16.3612752 34.2441786,16.3612752 34.4999722,16.8812008" id="Fill-13" fill="#FFE200"></path>
                            <path d="M48.057254,21.6835702 L48.4588413,24.1189421 C48.496381,24.3458347 48.6430476,24.539876 48.8503889,24.6379917 L51.0774524,25.6870413 C51.6003889,25.9332066 51.6147937,26.6752066 51.1018968,26.9419587 L48.9180476,28.0777355 C48.7141984,28.1837355 48.5753889,28.3834711 48.5465794,28.6116777 L48.2405873,31.0610661 C48.169,31.6370579 47.4701508,31.879719 47.0589603,31.4723636 L45.307254,29.7391322 C45.144,29.5770661 44.9117778,29.5061074 44.6861032,29.5499091 L42.2704683,30.0150826 C41.7025714,30.1241488 41.2564603,29.5323884 41.515746,29.0137769 L42.6170556,26.8066116 C42.7200714,26.6011818 42.7152698,26.3572066 42.6043968,26.155719 L41.4175317,23.9936694 C41.1381667,23.4855702 41.5611429,22.8771653 42.1329683,22.9638926 L44.564754,23.3335785 C44.7921746,23.3681818 45.0213413,23.2880248 45.1780476,23.1198264 L46.8603492,21.3191405 C47.2553889,20.8955785 47.9629683,21.1110826 48.057254,21.6835702" id="Fill-15" fill="#8AD600"></path>
                            <path d="M30.0074325,9.69199174 C29.8956865,9.25747934 30.003504,8.74894215 30.0964802,8.31004959 C30.1981865,7.8308595 30.3029484,7.33633884 30.1039008,7.18785124 C29.9109643,7.04505785 29.8708056,6.77173554 30.0126706,6.57900826 C30.1554087,6.38540496 30.4269167,6.3442314 30.6198532,6.48790083 C31.267631,6.96709091 31.0895357,7.81246281 30.9454881,8.49095041 C30.8442183,8.96970248 30.7394563,9.46378512 30.938504,9.61227273 C31.1375516,9.76032231 31.5788611,9.51459504 32.0053294,9.27719008 C32.6094563,8.93991736 33.3615595,8.52161157 34.0097738,9.00255372 C34.6571151,9.48218182 34.4794563,10.3266777 34.3354087,11.0056033 C34.2341389,11.4843554 34.1280675,11.978438 34.3284246,12.1273636 C34.5279087,12.2749752 34.9687817,12.0292479 35.3956865,11.791843 C36.00025,11.4550083 36.7514802,11.0362645 37.4005675,11.5176446 C38.0479087,11.9981488 37.87025,12.8422066 37.7266389,13.5206942 C37.625369,13.9998843 37.5206071,14.495281 37.7200913,14.6433306 C37.9125913,14.786124 37.9531865,15.0594463 37.8113214,15.2521736 C37.6685833,15.4457769 37.3970754,15.4865124 37.2037024,15.343281 C36.5563611,14.8632149 36.7340198,14.018719 36.877631,13.3402314 C36.9789008,12.8610413 37.0836627,12.3660826 36.8841786,12.2180331 C36.6846944,12.0699835 36.2433849,12.3157107 35.8169167,12.5531157 C35.2127897,12.8899504 34.4606865,13.3086942 33.8124722,12.827314 C33.1642579,12.3472479 33.3432262,11.5027521 33.4864008,10.8247025 C33.5881071,10.3459504 33.6937421,9.85099174 33.4933849,9.70250413 C33.2943373,9.55489256 32.8534643,9.80061983 32.4265595,10.0380248 C31.8224325,10.3752975 31.0707659,10.7936033 30.4221151,10.3126612 C30.1938214,10.1431488 30.0681071,9.92852066 30.0074325,9.69199174" id="Fill-17" fill="#FF0778"></path>
                            <g id="Group-21" transform="translate(33.174603, 0.309678)">
                                <mask id="mask-2" fill="white">
                                    <use xlink:href="#path-1"></use>
                                </mask>
                                <g id="Clip-20"></g>
                                <path d="M5.22111508,0.149757851 C5.57905159,0.0801132231 5.98675,0.193559504 6.33813889,0.29123719 C6.72182937,0.397675207 7.11774206,0.507617355 7.24782143,0.352559504 C7.37353571,0.202319835 7.59659127,0.182609091 7.74631349,0.308319835 C7.89603571,0.434030579 7.91611508,0.658295041 7.79040079,0.808534711 C7.36917063,1.31400579 6.69214683,1.12653471 6.14913095,0.975857025 C5.76587698,0.869419008 5.36996429,0.759038843 5.23944841,0.914096694 C5.10980556,1.07003058 5.28702778,1.44234463 5.4590119,1.80239421 C5.70258333,2.31224545 6.00464683,2.94780744 5.58210714,3.45327851 C5.16087698,3.95831157 4.48472619,3.77171653 3.94127381,3.62060083 C3.55801984,3.51372479 3.16210714,3.40290661 3.03159127,3.5588405 C2.90194841,3.71477438 3.07960714,4.08708843 3.25071825,4.44757603 C3.49385317,4.95786529 3.79635317,5.59255124 3.37425,6.09846033 C2.95258333,6.60349339 2.27599603,6.41689835 1.73298016,6.26578264 C1.34928968,6.15934463 0.952940476,6.04940248 0.822424603,6.20489835 C0.697583333,6.35513802 0.473654762,6.37484876 0.32393254,6.24913802 C0.17377381,6.12342727 0.15456746,5.89916281 0.280281746,5.74848512 C0.701511905,5.24345207 1.37809921,5.43048512 1.92111508,5.58116281 C2.30480556,5.68803884 2.70159127,5.79798099 2.83167063,5.64204711 C2.96131349,5.48655124 2.78409127,5.11379917 2.61210714,4.75374959 C2.36940873,4.24346033 2.06647222,3.60833636 2.4890119,3.10242727 C2.91111508,2.59739421 3.58726587,2.78486529 4.13028175,2.93554298 C4.51353571,3.04241901 4.90944841,3.15323719 5.03996429,2.99686529 C5.16960714,2.84180744 4.99238492,2.46905537 4.82040079,2.10900579 C4.57682937,1.59871653 4.27476587,0.963592562 4.69730556,0.458121488 C4.84615476,0.27984876 5.02643254,0.187865289 5.22111508,0.149757851" id="Fill-19" fill="#FFC000" mask="url(#mask-2)"></path>
                            </g>
                            <path d="M49.4959405,7.9818438 C48.8429246,8.15091818 48.17725,7.75582727 48.0087579,7.10055455 C47.8407024,6.44528182 48.2335595,5.77730661 48.8865754,5.60867025 C49.5400278,5.43959587 50.2057024,5.83424876 50.3737579,6.4899595 C50.5418135,7.14523223 50.1489563,7.81320744 49.4959405,7.9818438" id="Fill-22" fill="#FFC000"></path>
                            <path d="M1.8671627,15.2612843 C1.21414683,15.4303587 0.548472222,15.0352678 0.380416667,14.379995 C0.211924603,13.7247223 0.604781746,13.0567471 1.25823413,12.8881107 C1.91168651,12.7190364 2.5769246,13.1136893 2.74541667,13.768962 C2.91347222,14.4246727 2.52017857,15.0922099 1.8671627,15.2612843" id="Fill-24" fill="#FFC000"></path>
                            <path d="M27.7882262,12.7217521 C27.1352103,12.8903884 26.4695357,12.4957355 26.3010437,11.8404628 C26.1329881,11.1851901 26.5258452,10.5172149 27.1788611,10.3481405 C27.8323135,10.1795041 28.4979881,10.574157 28.6664802,11.2294298 C28.8340992,11.8847025 28.4412421,12.5526777 27.7882262,12.7217521" id="Fill-26" fill="#FFC000"></path>
                            <path d="M54.023881,14.2197248 C53.5035635,14.3546339 52.9723333,14.040138 52.8383254,13.5171463 C52.7043175,12.9945926 53.0172937,12.4619645 53.5384841,12.3274934 C54.0592381,12.1930223 54.5900317,12.5075182 54.7240397,13.0300719 C54.8580476,13.5526256 54.5446349,14.0852537 54.023881,14.2197248" id="Fill-28" fill="#004EC6"></path>
                            <path d="M3.3684881,10.0709636 C2.84773413,10.2058727 2.31694048,9.89093884 2.18249603,9.36838512 C2.0489246,8.8458314 2.36190079,8.31320331 2.88265476,8.17873223 C3.40340873,8.04426116 3.93420238,8.35875702 4.06864683,8.88131074 C4.20265476,9.40386446 3.88880556,9.93605455 3.3684881,10.0709636" id="Fill-30" fill="#004EC6"></path>
                            <path d="M39.1936984,5.00639752 C39.1963175,4.79045537 39.3731032,4.61787686 39.5878651,4.62094298 L42.9035794,4.66430661 C43.1183413,4.66737273 43.2907619,4.84389339 43.2881429,5.05983554 C43.2850873,5.27577769 43.1087381,5.44879421 42.8935397,5.4457281 L39.5778254,5.40236446 C39.3630635,5.39929835 39.1906429,5.22233967 39.1936984,5.00639752" id="Fill-32" fill="#FF0778"></path>
                            <path d="M28.5316429,16.0911504 C28.3793016,15.9382826 28.3797381,15.6912413 28.5320794,15.5383736 L30.878746,13.1879769 C31.0310873,13.0351091 31.2772778,13.0351091 31.429619,13.1884149 C31.5815238,13.3412826 31.5810873,13.588324 31.4291825,13.7411917 L29.0825159,16.0915884 C28.9301746,16.2444562 28.6839841,16.2444562 28.5316429,16.0911504" id="Fill-34" fill="#8AD600"></path>
                            <path d="M12.0811865,7.84154711 C11.9017817,7.96112562 11.6599563,7.91250579 11.5412262,7.73291901 L9.70265476,4.96377851 C9.5834881,4.78462975 9.63194048,4.5419686 9.81090873,4.42195207 C9.99031349,4.30237355 10.2317024,4.35055537 10.350869,4.53014215 L12.189004,7.29972066 C12.3086071,7.47930744 12.2601548,7.7219686 12.0811865,7.84154711" id="Fill-36" fill="#004EC6"></path>
                            <path d="M23.5365079,4.86312231 C23.0140079,4.99846942 22.4810317,4.6826595 22.3461508,4.1579157 C22.2117063,3.6331719 22.5264286,3.09835372 23.0489286,2.96344463 C23.5718651,2.82809752 24.1048413,3.14390744 24.2392857,3.66821322 C24.3741667,4.19339504 24.0594444,4.72777521 23.5365079,4.86312231" id="Fill-38" fill="#8AD600"></path>
                            <path d="M41.9141905,11.2032364 C41.3842698,11.3403355 40.843873,11.0201455 40.707246,10.4883934 C40.5710556,9.95620331 40.8897063,9.41437686 41.4200635,9.2777157 C41.9499841,9.14017851 42.490381,9.4603686 42.6270079,9.99212066 C42.7631984,10.5243107 42.4445476,11.0665752 41.9141905,11.2032364" id="Fill-40" fill="#004EC6"></path>
                            <path d="M30.2277817,3.14784959 C29.6978611,3.28451074 29.1574643,2.96475868 29.0208373,2.43300661 C28.8846468,1.90081653 29.2032976,1.35899008 29.7332183,1.22189091 C30.2635754,1.08479174 30.8035357,1.40498182 30.9405992,1.93673388 C31.0767897,2.46848595 30.7577024,3.01118843 30.2277817,3.14784959" id="Fill-42" fill="#004EC6"></path>
                            <polygon id="Fill-44" fill="#8AD600" points="25.3473611 9.16413802 24.0435119 10.2898405 24.2285913 12.0059893 22.757996 11.1093694 21.18875 11.8167661 21.5842262 10.1365347 20.4287897 8.85708843 22.1433929 8.71560909 22.9993849 7.21803058 23.66375 8.80978264"></polygon>
                            <path d="M16.0907302,4.61586198 C15.4377143,4.78449835 14.7720397,4.38984545 14.6039841,3.73457273 C14.4354921,3.0793 14.8283492,2.41132479 15.4813651,2.24225041 C16.1348175,2.07361405 16.8004921,2.46826694 16.9689841,3.12353967 C17.1366032,3.7788124 16.743746,4.4467876 16.0907302,4.61586198" id="Fill-46" fill="#FF0778"></path>
                            <path d="M16.0907302,10.3259331 C15.4377143,10.4950074 14.7720397,10.1003545 14.6039841,9.44508182 C14.4354921,8.78980909 14.8283492,8.12183388 15.4813651,7.9527595 C16.1348175,7.78412314 16.8004921,8.17877603 16.9689841,8.83404876 C17.1366032,9.48932149 16.743746,10.1572967 16.0907302,10.3259331" id="Fill-48" fill="#FFC000"></path>
                            <g id="Group-52" transform="translate(0.000000, 16.954306)">
                                <mask id="mask-4" fill="white">
                                    <use xlink:href="#path-3"></use>
                                </mask>
                                <g id="Clip-51"></g>
                                <path d="M0.113884921,3.36427355 C-0.0384563492,3.21140579 -0.0380198413,2.96436446 0.114321429,2.81149669 L2.4609881,0.4611 C2.61332937,0.308232231 2.85951984,0.308232231 3.01186111,0.461538017 C3.16376587,0.614405785 3.16332937,0.861447107 3.0114246,1.01431488 L0.664757937,3.36471157 C0.512416667,3.51757934 0.26622619,3.51757934 0.113884921,3.36427355" id="Fill-50" fill="#8AD600" mask="url(#mask-4)"></path>
                            </g>
                            <path d="M13.6699008,17.2204008 C13.6061706,17.2204008 13.542004,17.2024421 13.4852579,17.1643347 L11.0966865,15.5852851 C10.9421627,15.4827893 10.8993849,15.2738554 11.0015278,15.1179215 C11.1036706,14.9628636 11.3118849,14.9195 11.4668452,15.0219959 L13.8549802,16.6014835 C14.0099405,16.7039793 14.0527183,16.9133512 13.9505754,17.0684091 C13.8859722,17.1669628 13.7790278,17.2204008 13.6699008,17.2204008" id="Fill-53" fill="#FF0778"></path>
                            <path d="M11.2273333,19.0447397 C11.0828492,19.0447397 10.9492778,18.9501281 10.9060635,18.8042686 L10.0863016,16.0544008 C10.0334841,15.8761281 10.1343175,15.688219 10.3119762,15.634781 C10.4900714,15.580905 10.6768968,15.6829628 10.7297143,15.8607975 L11.5494762,18.6111033 C11.6022937,18.789376 11.5014603,18.9772851 11.3242381,19.0307231 C11.2915,19.0399215 11.2591984,19.0447397 11.2273333,19.0447397" id="Fill-55" fill="#FF0778"></path>
                            <path d="M8.18626984,18.8672554 C8.14174603,18.8672554 8.09678571,18.858057 8.05313492,18.8396603 C7.88289683,18.7660736 7.8043254,18.566776 7.87809524,18.3963876 L9.01214286,15.7612802 C9.0859127,15.5908917 9.28365079,15.5116107 9.45345238,15.5856355 C9.62412698,15.6592223 9.70269841,15.8576438 9.62892857,16.0289083 L8.49488095,18.6635777 C8.43988095,18.7910405 8.31634921,18.8672554 8.18626984,18.8672554" id="Fill-57" fill="#FF0778"></path>
                            <path d="M5.97391667,16.7695504 C5.85125794,16.7695504 5.73252778,16.7016579 5.67403571,16.5838314 C5.59022619,16.4173851 5.6565754,16.2145835 5.82244841,16.1313603 L8.37776587,14.8414017 C8.5440754,14.7573025 8.74574206,14.824757 8.82867857,14.9907653 C8.91205159,15.1572116 8.84526587,15.3595752 8.67939286,15.4436744 L6.12494841,16.7336331 C6.07605952,16.758162 6.02455159,16.7695504 5.97391667,16.7695504" id="Fill-59" fill="#FF0778"></path>
                            <path d="M8.40325794,14.3946686 C8.37750397,14.3946686 8.35175,14.3916025 8.32555952,14.3854702 L5.54194841,13.7262554 C5.36167063,13.6833298 5.2494881,13.5015529 5.29226587,13.3206521 C5.33504365,13.1393132 5.51575794,13.026743 5.69690873,13.0701066 L8.48051984,13.7293215 C8.66079762,13.7722471 8.77298016,13.953586 8.72976587,14.1349248 C8.69353571,14.2899826 8.55559921,14.3946686 8.40325794,14.3946686" id="Fill-61" fill="#FF0778"></path>
                            <path d="M9.00258333,13.4835504 C8.90000397,13.4835504 8.79873413,13.4366826 8.73282143,13.3473273 L7.02345635,11.0473025 C6.91214683,10.8979388 6.94270238,10.6863769 7.09155159,10.5751207 C7.24040079,10.4638645 7.45123413,10.4949636 7.56167063,10.6443273 L9.27147222,12.9447901 C9.38234524,13.0937157 9.35178968,13.3052777 9.20294048,13.4165339 C9.14270238,13.4616496 9.0719881,13.4835504 9.00258333,13.4835504" id="Fill-63" fill="#FF0778"></path>
                            <path d="M10.0444405,13.1717264 C10.0378929,13.1717264 10.0317817,13.1712884 10.0247976,13.1712884 C9.83971825,13.160776 9.69828968,13.0009 9.70876587,12.815181 L9.87289286,9.94967686 C9.88424206,9.76395785 10.0461865,9.6220405 10.2282103,9.63255289 C10.4132897,9.64306529 10.5547183,9.80250331 10.5442421,9.98822231 L10.3796786,12.8537264 C10.3692024,13.0333132 10.2212262,13.1717264 10.0444405,13.1717264" id="Fill-65" fill="#FF0778"></path>
                            <path d="M11.0419048,13.6029099 C10.9594048,13.6029099 10.8764683,13.5726868 10.8114286,13.5109264 C10.6765476,13.3830256 10.67,13.1701496 10.7974603,13.0343645 L12.760873,10.9472157 C12.8883333,10.8118686 13.1013492,10.8052983 13.2357937,10.9331992 C13.3711111,11.0611 13.3772222,11.2748521 13.2497619,11.4097612 L11.2863492,13.4973479 C11.22,13.5674306 11.1313889,13.6029099 11.0419048,13.6029099" id="Fill-67" fill="#FF0778"></path>
                            <path d="M11.5312738,14.5768835 C11.3627817,14.5768835 11.2174246,14.4502967 11.1977817,14.2781562 C11.1768294,14.0933132 11.3086548,13.9264289 11.4932976,13.9049661 L14.3345278,13.5751397 C14.5217897,13.5519248 14.6854802,13.6863959 14.7064325,13.8712388 C14.7278214,14.0560818 14.595996,14.2229661 14.4117897,14.2444289 L11.570123,14.5742554 C11.5574643,14.5760074 11.5439325,14.5768835 11.5312738,14.5768835" id="Fill-69" fill="#FF0778"></path>
                            <path d="M50.5608016,17.2764231 C50.4975079,17.2764231 50.4333413,17.2584645 50.3765952,17.220795 L47.9880238,15.6417455 C47.8330635,15.5388116 47.7902857,15.3303157 47.8924286,15.1743818 C47.9945714,15.019324 48.2032222,14.9759603 48.3573095,15.0784562 L50.745881,16.6579438 C50.9008413,16.7600017 50.943619,16.9693736 50.8419127,17.1248694 C50.776873,17.2229851 50.6699286,17.2764231 50.5608016,17.2764231" id="Fill-71" fill="#FFC000"></path>
                            <path d="M48.1186706,19.1012 C47.9741865,19.1012 47.8401786,19.0065884 47.7969643,18.8602909 L46.9772024,16.1104231 C46.9243849,15.9321504 47.0252183,15.7442413 47.202877,15.6908033 C47.3787897,15.6373653 47.5677976,15.7385471 47.6206151,15.9172579 L48.440377,18.6671256 C48.493631,18.8453983 48.3927976,19.0333074 48.2151389,19.0867455 C48.1828373,19.0963818 48.1505357,19.1012 48.1186706,19.1012" id="Fill-73" fill="#FFC000"></path>
                            <path d="M45.0771706,18.9232777 C45.0326468,18.9232777 44.9876865,18.9140793 44.9440357,18.8956826 C44.7742341,18.8216579 44.6956627,18.6227983 44.768996,18.4524099 L45.9034802,15.8173025 C45.9768135,15.646914 46.1741151,15.5676331 46.3447897,15.6416579 C46.5150278,15.7156826 46.5935992,15.9141041 46.5202659,16.0849306 L45.3857817,18.7196 C45.3312183,18.8470628 45.20725,18.9232777 45.0771706,18.9232777" id="Fill-75" fill="#FFC000"></path>
                            <path d="M42.8647738,16.8255727 C42.7421151,16.8255727 42.6233849,16.7581182 42.5644563,16.6402917 C42.4810833,16.4738455 42.547869,16.2710438 42.7133056,16.1873826 L45.268623,14.897862 C45.4331865,14.8133248 45.6361627,14.8807793 45.7199722,15.0467876 C45.8029087,15.2132339 45.736123,15.4160355 45.57025,15.4996967 L43.0158056,16.7896554 C42.9669167,16.8141843 42.9158452,16.8255727 42.8647738,16.8255727" id="Fill-77" fill="#FFC000"></path>
                            <path d="M45.2941587,14.4507347 C45.2684048,14.4507347 45.2430873,14.4481066 45.2168968,14.4415364 L42.4328492,13.7823215 C42.2521349,13.7393959 42.1403889,13.558057 42.1831667,13.3767182 C42.226381,13.1958174 42.4075317,13.0823711 42.587373,13.1261727 L45.3709841,13.7853876 C45.5521349,13.8283132 45.663881,14.0100901 45.6211032,14.1909909 C45.5844365,14.3464868 45.4465,14.4507347 45.2941587,14.4507347" id="Fill-79" fill="#FFC000"></path>
                            <path d="M45.8934841,13.5396165 C45.7909048,13.5396165 45.6896349,13.4927488 45.6237222,13.4038314 L43.9143571,11.1033686 C43.8030476,10.954005 43.8340397,10.742443 43.9824524,10.6311868 C44.1317381,10.5194926 44.3416984,10.5514678 44.4525714,10.7003934 L46.162373,13.0012942 C46.273246,13.1502198 46.2426905,13.3617818 46.0938413,13.473038 C46.0331667,13.5177157 45.9633254,13.5396165 45.8934841,13.5396165" id="Fill-81" fill="#FFC000"></path>
                            <path d="M46.9357341,13.2277926 C46.92875,13.2277926 46.9226389,13.2273545 46.9160913,13.2273545 C46.7310119,13.2168421 46.5891468,13.0569661 46.599623,12.8712471 L46.7641865,10.006181 C46.7750992,9.82002397 46.9344246,9.67854463 47.1190675,9.68861901 C47.3041468,9.6991314 47.4460119,9.85900744 47.4350992,10.0447264 L47.2709722,12.9097926 C47.260496,13.0893793 47.1125198,13.2277926 46.9357341,13.2277926" id="Fill-83" fill="#FFC000"></path>
                            <path d="M47.9332421,13.6589322 C47.8507421,13.6589322 47.7678056,13.6287091 47.7027659,13.5673868 C47.5678849,13.439486 47.5613373,13.2261719 47.6887976,13.0903868 L49.6517738,11.003238 C49.7792341,10.8683289 49.99225,10.8617587 50.1266944,10.9892215 C50.2615754,11.1171223 50.268123,11.3308744 50.1406627,11.4662215 L48.178123,13.5533702 C48.1113373,13.6234529 48.0227262,13.6589322 47.9332421,13.6589322" id="Fill-85" fill="#FFC000"></path>
                            <path d="M48.4226111,14.6329496 C48.254119,14.6329496 48.1087619,14.5063628 48.089119,14.3346603 C48.0681667,14.1498174 48.1999921,13.9829331 48.3841984,13.9610322 L51.2254286,13.6312058 C51.4118175,13.6075529 51.5768175,13.742462 51.5973333,13.927743 C51.6187222,14.112586 51.4868968,14.2794702 51.3026905,14.3009331 L48.4614603,14.6307595 C48.4483651,14.6325116 48.4352698,14.6329496 48.4226111,14.6329496" id="Fill-87" fill="#FFC000"></path>
                        </g>
                    </g>
                </g>
            </g>
        </g>
    </g>
</svg>