<?xml version="1.0" encoding="UTF-8" standalone="no"?>
<svg width="43px" height="50px" viewBox="0 0 43 50" version="1.1" xmlns="http://www.w3.org/2000/svg" xmlns:xlink="http://www.w3.org/1999/xlink">
    <!-- Generator: Sketch 46.2 (44496) - http://www.bohemiancoding.com/sketch -->
    <title>002-star</title>
    <desc>Created with Sketch.</desc>
    <defs></defs>
    <g id="Page-1" stroke="none" stroke-width="1" fill="none" fill-rule="evenodd">
        <g id="mobi-sinnnhat-new" transform="translate(-314.000000, -2310.000000)">
            <g id="11/1-copy-5" transform="translate(10.000000, 2299.000000)">
                <g id="date-info" transform="translate(6.000000, 0.000000)">
                    <g id="002-star" transform="translate(298.000000, 11.000000)">
                        <g>
                            <ellipse id="Oval" fill="#FF4B4E" fill-rule="nonzero" cx="2.23958333" cy="34.375" rx="1.34375" ry="1.33928571"></ellipse>
                            <ellipse id="Oval" fill="#FFCA54" fill-rule="nonzero" cx="9.40625" cy="18.3035714" rx="1.34375" ry="1.33928571"></ellipse>
                            <ellipse id="Oval" fill="#00CDB3" fill-rule="nonzero" cx="29.1145833" cy="14.7321429" rx="1.34375" ry="1.33928571"></ellipse>
                            <g id="Group" transform="translate(13.437500, 5.357143)" fill-rule="nonzero" fill="#57BAE5">
                                <ellipse id="Oval" cx="28.0797225" cy="29.6770833" rx="1.45728586" ry="1.47749607"></ellipse>
                                <ellipse id="Oval" cx="1.54384098" cy="1.50363601" rx="1.45728586" ry="1.47749607"></ellipse>
                            </g>
                            <path d="M40.0050158,24.6604502 C39.2722657,24.5541221 28.153609,22.940333 27.4697548,22.8410803 L21.8637441,11.4951265 C21.3499926,10.4544477 19.8588146,10.4535633 19.3441777,11.4951265 L13.738167,22.8410803 L1.20290592,24.6604502 C0.673708425,24.7371991 0.234137057,25.1075785 0.0687566915,25.6155359 C-0.0964269094,26.1235915 0.0414064586,26.6812735 0.424309719,27.0541097 L9.49484721,35.885532 L7.35356009,48.3560872 C7.15738612,49.4995563 8.36276401,50.3758295 9.39203788,49.835443 L20.6040593,43.9476971 C32.8022631,50.353424 31.9797885,49.9964092 32.4695347,49.9964092 C33.3353959,49.9964092 34.0021316,49.2168337 33.8543616,48.3558906 L31.7130745,35.885532 L40.7837104,27.0541097 C41.6157281,26.2439722 41.15589,24.8275091 40.0050158,24.6604502 Z" id="Shape" fill="#FFCA54" fill-rule="nonzero"></path>
                            <path d="M7.10853295,14.2708326 C6.26233184,14.1043504 4.79434197,13.0146491 5.29383092,10.0825454 C5.47610469,9.01191388 5.25149636,8.92423328 4.02830213,8.63818669 C2.83303695,8.35879938 1.02686063,7.93643922 0.896917069,5.33366746 C0.874083849,4.87760728 1.21481821,4.48894715 1.65766509,4.46543785 C2.10168793,4.44152496 2.47819107,4.79275184 2.5008283,5.24871112 C2.56550609,6.54343771 3.15789586,6.73877676 4.38383399,7.02542875 C5.48502239,7.28292113 7.32784946,7.71385764 6.87579089,10.3681884 C6.5329006,12.3804026 7.40105296,12.6446552 7.40997065,12.6463704 C7.84556578,12.732134 8.13122602,13.1652902 8.04812486,13.613884 C7.96463171,14.0629822 7.5432461,14.3565961 7.10853295,14.2708326 Z" id="Shape" fill="#F99830" fill-rule="nonzero"></path>
                            <ellipse id="Oval" fill="#57BAE5" fill-rule="nonzero" cx="2.6875" cy="15.1785714" rx="1" ry="1"></ellipse>
                            <ellipse id="Oval" fill="#00CDB3" fill-rule="nonzero" cx="36.7291667" cy="36.6071429" rx="1" ry="1"></ellipse>
                            <ellipse id="Oval" fill="#FFCA54" fill-rule="nonzero" cx="2.6875" cy="42.8571429" rx="1" ry="1"></ellipse>
                            <g id="Group" transform="translate(10.750000, 11.607143)" fill-rule="nonzero" fill="#FF4B4E">
                                <path d="M23.4607385,2.3825 C23.1460804,2.10080357 23.139004,1.6375 23.4447439,1.34776786 L24.5484707,0.301964286 C24.8542106,0.0122321429 25.3572177,0.005625 25.6717788,0.287321429 C25.9865339,0.569017857 25.9935134,1.03232143 25.6877735,1.32205357 L24.5841436,2.36785714 C24.2776282,2.65785714 23.7747181,2.66375 23.4607385,2.3825 Z" id="Shape"></path>
                                <path d="M1.9844012,1.98035714 L0.516675218,1.43366071 C0.109926772,1.28223214 -0.0865649098,0.855714286 0.0779375,0.480982143 C0.242342973,0.106339286 0.705314988,-0.0746428571 1.11225731,0.076875 L2.58017716,0.623571429 C2.98692561,0.775 3.18322341,1.20151786 3.01881794,1.57625 C2.85470328,1.95044643 2.3918282,2.13205357 1.9844012,1.98035714 Z" id="Shape"></path>
                            </g>
                            <path d="M4.4146616,40.1310769 L3.12424942,39.6454732 C2.7667721,39.5109667 2.59395589,39.1320325 2.73865112,38.7992556 C2.88317592,38.4663994 3.29024843,38.3060383 3.64789618,38.440307 L4.93830836,38.9259899 C5.29561525,39.0604172 5.46851668,39.4393514 5.32390667,39.7722076 C5.17861493,40.1065707 4.76992333,40.264949 4.4146616,40.1310769 Z" id="Shape" fill="#00CDB3" fill-rule="nonzero"></path>
                            <path d="M38.456324,42.809542 L37.1658885,42.3239709 C36.8084048,42.1894734 36.6356707,41.8105646 36.7802833,41.47781 C36.9248107,41.1451348 37.3318905,40.9844673 37.6895448,41.1189648 L38.9799802,41.6044566 C39.337464,41.7389542 39.5101129,42.117863 39.3655855,42.4506175 C39.2222511,42.7805965 38.8176425,42.9450705 38.456324,42.809542 Z" id="Shape" fill="#57BAE5" fill-rule="nonzero"></path>
                            <g id="Group" fill-rule="nonzero" fill="#F99830">
                                <path d="M29.409662,0.661132812 C29.3322415,0.225878906 28.9137576,-0.0642578125 28.4754021,0.0122070312 C28.0369482,0.0890625 27.7441865,0.504296875 27.8217054,0.939550781 C28.0415717,2.17519531 27.504842,2.49169922 26.3682262,3.03603516 C25.3472002,3.52490234 23.6385384,4.34326172 24.6613351,6.74589844 C25.4389834,8.57333984 24.6367416,9.01416016 24.6367416,9.01416016 C24.4110711,9.16269531 23.6977596,9.42587891 24.0023262,10.1461914 C24.5284316,11.3912109 27.7931768,9.99150391 26.146294,6.12304687 C25.7339093,5.15400391 25.9343959,5.02109375 27.0687491,4.47783203 C28.1770331,3.94697266 29.8516574,3.14511719 29.409662,0.661132812 Z" id="Shape"></path>
                                <path d="M41.6916836,12.3225586 C41.3265184,12.0698242 40.8241213,12.1586914 40.5693321,12.5212891 C39.9795786,13.3608398 39.8649726,14.3598633 39.7639423,15.2411133 C39.5898199,16.7602539 39.5246962,17.3291992 37.9251314,17.2273437 C36.1636426,17.1155273 34.8474939,17.490332 34.0126902,18.340332 C32.9840894,19.3875 33.0205862,20.8319336 33.9901625,20.8480469 C34.7963393,20.8614258 34.8510353,20.0085937 34.8510353,20.0085937 C34.8510353,20.0085937 35.0176813,18.6481445 37.8224287,18.8248047 C42.238841,19.1040039 40.827466,14.9523437 41.8917767,13.4367187 C42.1466643,13.0742187 42.0570454,12.5753906 41.6916836,12.3225586 Z" id="Shape"></path>
                                <path d="M17.3238971,21.4014648 L22.0086743,11.9782227 L21.8879691,11.7354492 C21.3742589,10.7012695 19.8832008,10.7003906 19.3686053,11.7354492 L13.7630454,23.0105469 L15.6605858,22.6759766 C15.7940796,22.6511719 16.8124495,22.4297852 17.3238971,21.4014648 Z" id="Shape"></path>
                                <path d="M10.404943,47.8327148 L12.3116322,36.796875 C12.5359254,35.4966797 11.7388974,34.659082 11.7363397,34.656543 L3.47605311,26.6635742 C2.80937101,26.0185547 2.94719329,24.9128906 3.76330583,24.4529297 L1.22859565,24.818457 C0.699440713,24.8947266 0.259904692,25.262793 0.0945376266,25.7675781 C-0.0706326908,26.2724609 0.0671895931,26.8266602 0.450062062,27.197168 L9.51987013,35.9734375 L7.37885358,48.3662109 C7.18269539,49.5025391 8.38797634,50.3733398 9.41716745,49.8363281 L10.8391668,49.0943359 C10.4909221,48.7765625 10.3235875,48.3026367 10.404943,47.8327148 Z" id="Shape"></path>
                            </g>
                        </g>
                    </g>
                </g>
            </g>
        </g>
    </g>
</svg>