<?xml version="1.0" encoding="UTF-8" standalone="no"?>
<svg width="23px" height="14px" viewBox="0 0 23 14" version="1.1" xmlns="http://www.w3.org/2000/svg" xmlns:xlink="http://www.w3.org/1999/xlink">
    <!-- Generator: Sketch 46.2 (44496) - http://www.bohemiancoding.com/sketch -->
    <title>quotes</title>
    <desc>Created with Sketch.</desc>
    <defs>
        <polygon id="path-1" points="1.25395572e-15 14 1.25395572e-15 0 23 0 23 14"></polygon>
    </defs>
    <g id="Page-1" stroke="none" stroke-width="1" fill="none" fill-rule="evenodd">
        <g id="mobi-sinnnhat-chi-tiet" transform="translate(-19.000000, -1828.000000)">
            <g id="wishlist" transform="translate(0.000000, 1732.000000)">
                <g id="quotes-1" transform="translate(10.000000, 85.000000)">
                    <g id="quotes" transform="translate(9.000000, 11.000000)">
                        <g id="Page-1">
                            <mask id="mask-2" fill="white">
                                <use xlink:href="#path-1"></use>
                            </mask>
                            <g id="Clip-2"></g>
                            <path d="M23,8.54056348 C23,10.0599007 22.4798454,11.3502469 21.4467605,12.411602 C20.4100635,13.4729572 19.1710841,14 17.7298223,14 C14.3560417,14 12.564398,12.182611 12.3548913,8.54056348 C12.1778942,6.87946995 12.6727635,5.21837642 13.8286627,3.5536481 C14.9195425,2.10337169 16.2199291,1.06382519 17.7298223,0.427739047 C18.7484584,-0.0338777552 19.4347736,-0.121112427 19.7851555,0.162400255 C20.1391496,0.409565158 20.0669059,0.743964731 19.5756488,1.16923375 C18.9073946,1.8053199 18.4341984,2.49229294 18.1524479,3.23742242 C19.521466,3.31011798 20.673753,3.86623901 21.6056967,4.90578551 C22.5340282,5.95260157 23,7.16298263 23,8.54056348 M10.7221837,8.54056348 C10.7221837,10.0599007 10.1948047,11.3502469 9.14004676,12.411602 C8.08528879,13.4729572 6.83908502,14 5.39782327,14 C2.02404262,14 0.232398942,12.182611 0.0228922214,8.54056348 C-0.117982987,6.87946995 0.391335075,5.21837642 1.55084641,3.5536481 C2.60560438,2.10337169 3.88793,1.06382519 5.39782327,0.427739047 C6.41645939,-0.0338777552 7.10277451,-0.121112427 7.45315644,0.162400255 C7.83966022,0.409565158 7.77102871,0.743964731 7.24364972,1.16923375 C6.61151737,1.8053199 6.1527699,2.49229294 5.87101948,3.23742242 C7.24364972,3.31011798 8.39593668,3.86623901 9.32426819,4.90578551 C10.2562119,5.95260157 10.7221837,7.16298263 10.7221837,8.54056348" id="Fill-1" fill="#EB676B" mask="url(#mask-2)"></path>
                        </g>
                    </g>
                </g>
            </g>
        </g>
    </g>
</svg>