<?xml version="1.0" encoding="UTF-8" standalone="no"?>
<svg width="64px" height="60px" viewBox="0 0 64 60" version="1.1" xmlns="http://www.w3.org/2000/svg" xmlns:xlink="http://www.w3.org/1999/xlink">
    <!-- Generator: Sketch 46.2 (44496) - http://www.bohemiancoding.com/sketch -->
    <title>minicake</title>
    <desc>Created with Sketch.</desc>
    <defs>
        <polygon id="path-1" points="8.32622857 13.2692308 0.138228571 13.2692308 0.138228571 0.572019231 8.32622857 0.572019231 8.32622857 13.2692308"></polygon>
        <polygon id="path-3" points="9.54422857 13.8461538 0.335657143 13.8461538 0.335657143 0.435865385 9.54422857 0.435865385 9.54422857 13.8461538"></polygon>
        <polygon id="path-5" points="9.61005714 13.8461538 0.401485714 13.8461538 0.401485714 0.435634615 9.61005714 0.435634615"></polygon>
        <polygon id="path-7" points="10.472 0.418609032 10.472 8.71597511 0.423861624 8.71597511 0.423861624 0.418609032"></polygon>
    </defs>
    <g id="Page-1" stroke="none" stroke-width="1" fill="none" fill-rule="evenodd">
        <g id="mobi-sinnnhat-new" transform="translate(-297.000000, -2846.000000)">
            <g id="11/1-copy" transform="translate(10.000000, 2836.000000)">
                <g id="date-info" transform="translate(6.000000, 0.000000)">
                    <g id="minicake" transform="translate(281.000000, 10.000000)">
                        <g id="Page-1">
                            <path d="M31.7837714,30.3006346 L31.7837714,30.3006346 C31.4683429,30.3006346 31.2123429,30.04275 31.2123429,29.7237115 L31.2123429,15.2089038 C31.2123429,14.8898654 31.4683429,14.6319808 31.7837714,14.6319808 C32.0997714,14.6319808 32.3552,14.8898654 32.3552,15.2089038 L32.3552,29.7237115 C32.3552,30.04275 32.0997714,30.3006346 31.7837714,30.3006346" id="Fill-1" fill="#FFC000"></path>
                            <path d="M17.0488,48.1424423 C18.9128,51.8687885 21.2916571,55.8662885 21.9276571,59.8407115 L25.2362286,59.8407115 C24.8059429,55.8455192 23.4470857,51.8728269 22.0499429,47.1437885 C20.3733714,47.4051346 18.7048,47.7380192 17.0488,48.1424423" id="Fill-3" fill="#004EC6"></path>
                            <g id="Group-7" transform="translate(37.142857, 46.571538)">
                                <mask id="mask-2" fill="white">
                                    <use xlink:href="#path-1"></use>
                                </mask>
                                <g id="Clip-6"></g>
                                <path d="M3.32451429,0.572019231 C1.92737143,5.30105769 0.568514286,9.27375 0.138228571,13.2695192 L3.44737143,13.2695192 C4.0828,9.29451923 6.46222857,5.29701923 8.32622857,1.57067308 C6.66965714,1.16625 5.00165714,0.833365385 3.32451429,0.572019231" id="Fill-5" fill="#64C5FF" mask="url(#mask-2)"></path>
                            </g>
                            <g id="Group-10" transform="translate(21.714286, 45.994615)">
                                <mask id="mask-4" fill="white">
                                    <use xlink:href="#path-3"></use>
                                </mask>
                                <g id="Clip-9"></g>
                                <path d="M0.335657143,1.14894231 C1.7328,5.87798077 3.09165714,9.85067308 3.52194286,13.8464423 L9.54422857,13.8464423 L9.54422857,0.435865385 C6.46651429,0.435865385 3.38765714,0.673557692 0.335657143,1.14894231" id="Fill-8" fill="#006FD2" mask="url(#mask-4)"></path>
                            </g>
                            <g id="Group-13" transform="translate(30.857143, 45.994615)">
                                <mask id="mask-6" fill="white">
                                    <use xlink:href="#path-5"></use>
                                </mask>
                                <g id="Clip-12"></g>
                                <path d="M0.401485714,0.435634615 L0.401485714,13.8462115 L6.42377143,13.8462115 C6.85462857,9.85044231 8.21291429,5.87832692 9.61005714,1.14871154 C6.55862857,0.673326923 3.48034286,0.435634615 0.401485714,0.435634615" id="Fill-11" fill="#24A2F2" mask="url(#mask-6)"></path>
                            </g>
                            <path d="M42.4076571,49.4297885 C34.9722286,51.1022885 27.2625143,51.1022885 19.8276571,49.4297885 C18.0350857,49.0276731 16.9756571,47.3459423 17.4373714,45.8113269 C17.8990857,44.27325 19.5202286,43.4061346 21.0802286,43.7540192 C27.6905143,45.2413269 34.5448,45.2413269 41.1556571,43.7540192 C42.7145143,43.4061346 44.3362286,44.27325 44.7985143,45.8113269 C45.2596571,47.3459423 44.2013714,49.0276731 42.4076571,49.4297885" id="Fill-14" fill="#FFC000"></path>
                            <path d="M40.3378857,32.9300192 C40.7818857,34.0757885 39.8596,35.8290577 38.3676,36.0534808 C34.7093143,36.6032885 30.9601714,36.6932885 27.2727429,36.3234808 C24.4630286,36.0425192 22.7858857,34.2540577 23.4550286,32.7015577 C23.7201714,32.0173269 24.9984571,31.0671346 25.2636,30.3840577 C26.9476,32.1759808 31.6196,31.6411731 35.3087429,31.2707885 C37.4436,31.0654038 39.6704571,31.3688654 40.3378857,32.9300192" id="Fill-16" fill="#FF90D2"></path>
                            <path d="M42.4534286,36.7679423 C43.0094286,38.2010192 41.8551429,40.3944808 39.9888571,40.6748654 C35.4134286,41.3631346 30.7231429,41.4756346 26.1094286,41.0123654 C22.5957143,40.6610192 20.4974286,38.4242885 21.3345714,36.4817885 C21.666,35.6262115 23.2654286,34.43775 23.5968571,33.58275 C25.7031429,35.8246731 31.5482857,35.1554423 36.1625714,34.6921731 C38.8328571,34.4348654 41.6191429,34.8144808 42.4534286,36.7679423" id="Fill-18" fill="#FF4EA6"></path>
                            <path d="M44.5733714,41.0621538 C45.2579429,42.7635 43.8362286,45.3671538 41.5356571,45.7006154 C35.8973714,46.5175385 30.1173714,46.6513846 24.4328,46.101 C20.1019429,45.6838846 17.5162286,43.0277308 18.5476571,40.7217692 C18.9562286,39.7063846 20.9265143,38.2958077 21.3356571,37.2804231 C23.9316571,39.9429231 31.1339429,39.1479231 36.8213714,38.5981154 C40.1110857,38.2917692 43.5448,38.7429231 44.5733714,41.0621538" id="Fill-20" fill="#FF0778"></path>
                            <path d="M24.8289714,31.6669038 C25.0746857,29.8374808 27.0781143,28.2492115 29.3969714,28.0467115 C30.3032571,27.9670962 31.2198286,28.0778654 32.1306857,28.0495962 C33.0415429,28.0213269 34.0124,27.8199808 34.5895429,27.26325 C34.8529714,27.0094038 34.9855429,26.6678654 34.9758286,26.3390192 C34.9638286,25.9438269 35.4038286,25.6778654 35.8084,25.8290192 C36.7946857,26.19825 37.3472571,26.6494038 37.7781143,27.42075 C38.3895429,28.51575 38.4164,29.8311346 37.7095429,30.8903654 C36.7135429,32.3811346 34.4569714,33.1305577 32.3198286,33.1547885 C30.1826857,33.1795962 26.8415429,32.2328654 24.8289714,31.6669038" id="Fill-22" fill="#FF90D2"></path>
                            <path d="M29.1693714,35.7290192 C28.7013714,35.85075 28.2236571,35.5663269 28.1030857,35.09325 C27.9825143,34.6201731 28.2642286,34.1384423 28.7322286,34.0161346 C29.2013714,33.8944038 29.6785143,34.1788269 29.7990857,34.6524808 C29.9196571,35.1249808 29.6379429,35.6072885 29.1693714,35.7290192" id="Fill-24" fill="#004EC6"></path>
                            <path d="M35.0125714,35.6434038 C34.5422857,35.7657115 34.0628571,35.4801346 33.9417143,35.0053269 C33.8205714,34.5299423 34.1034286,34.0459038 34.5737143,33.9241731 C35.044,33.8018654 35.5234286,34.0880192 35.644,34.56225 C35.7651429,35.0370577 35.4822857,35.5210962 35.0125714,35.6434038" id="Fill-26" fill="#8AD600"></path>
                            <path d="M34.5097714,31.5716538 C34.0417714,31.6933846 33.5640571,31.4089615 33.4434857,30.9353077 C33.3229143,30.4628077 33.6046286,29.9805 34.0726286,29.8587692 C34.5417714,29.7370385 35.0194857,30.0214615 35.1400571,30.4945385 C35.2600571,30.9676154 34.9783429,31.4493462 34.5097714,31.5716538" id="Fill-28" fill="#004EC6"></path>
                            <path d="M32.0025143,43.7236731 C31.5339429,43.8454038 31.0568,43.5604038 30.9362286,43.0873269 C30.8150857,42.6148269 31.0973714,42.1325192 31.5653714,42.0107885 C32.0339429,41.8890577 32.5116571,42.1734808 32.6322286,42.6465577 C32.7522286,43.1196346 32.4705143,43.6013654 32.0025143,43.7236731" id="Fill-30" fill="#24A2F2"></path>
                            <path d="M38.5220571,37.6474038 C38.0534857,37.7691346 37.5763429,37.4847115 37.4557714,37.0116346 C37.3346286,36.5385577 37.6169143,36.0568269 38.0849143,35.9350962 C38.5534857,35.8127885 39.0312,36.0977885 39.1517714,36.5708654 C39.2717714,37.0433654 38.9900571,37.5256731 38.5220571,37.6474038" id="Fill-32" fill="#24A2F2"></path>
                            <path d="M32.0025143,38.1538846 C31.5339429,38.2756154 31.0568,37.9911923 30.9362286,37.5181154 C30.8150857,37.0450385 31.0973714,36.5627308 31.5653714,36.441 C32.0339429,36.3192692 32.5116571,36.6036923 32.6322286,37.0773462 C32.7522286,37.5498462 32.4705143,38.0321538 32.0025143,38.1538846" id="Fill-34" fill="#FF90D2"></path>
                            <path d="M22.9751429,42.7107115 C22.5071429,42.8324423 22.0294286,42.5480192 21.9088571,42.0749423 C21.7882857,41.6018654 22.07,41.1201346 22.538,40.9984038 C23.0071429,40.8760962 23.4842857,41.1610962 23.6054286,41.6341731 C23.7254286,42.1066731 23.4431429,42.5889808 22.9751429,42.7107115" id="Fill-36" fill="#FF90D2"></path>
                            <path d="M41.0293143,42.7107115 C40.5613143,42.8324423 40.0836,42.5480192 39.9630286,42.0749423 C39.8424571,41.6018654 40.1241714,41.1201346 40.5927429,40.9984038 C41.0613143,40.8760962 41.5390286,41.1610962 41.6596,41.6341731 C41.7796,42.1066731 41.4978857,42.5889808 41.0293143,42.7107115" id="Fill-38" fill="#FF90D2"></path>
                            <path d="M35.6492571,42.5596731 C35.1789714,42.6819808 34.6995429,42.3964038 34.5784,41.9215962 C34.4572571,41.4467885 34.7406857,40.96275 35.2104,40.8410192 C35.6812571,40.7187115 36.1606857,41.0042885 36.2812571,41.4790962 C36.4024,41.9533269 36.1195429,42.4373654 35.6492571,42.5596731" id="Fill-40" fill="#8AD600"></path>
                            <path d="M28.3802857,41.7613846 C27.7928571,41.9142692 27.194,41.5571538 27.0425714,40.9640769 C26.8917143,40.371 27.2448571,39.7663846 27.8322857,39.6135 C28.4197143,39.4611923 29.0185714,39.8177308 29.17,40.4108077 C29.3208571,41.0044615 28.9671429,41.6085 28.3802857,41.7613846" id="Fill-42" fill="#FFE200"></path>
                            <path d="M30.1470286,31.6510962 C29.5596,31.8039808 28.9607429,31.4468654 28.8093143,30.8532115 C28.6584571,30.2607115 29.0116,29.6555192 29.5990286,29.5026346 C30.1864571,29.3503269 30.7853143,29.7074423 30.9367429,30.3005192 C31.0876,30.8935962 30.7338857,31.4976346 30.1470286,31.6510962" id="Fill-44" fill="#FFE200"></path>
                            <path d="M25.6219429,36.3025385 C25.1516571,36.4248462 24.6722286,36.1392692 24.5510857,35.6644615 C24.4299429,35.1896538 24.7128,34.7056154 25.1830857,34.5833077 C25.6539429,34.461 26.1333714,34.7471538 26.2539429,35.2213846 C26.3750857,35.6961923 26.0916571,36.1802308 25.6219429,36.3025385" id="Fill-46" fill="#8AD600"></path>
                            <path d="M38.5354286,13.1383269 C38.4268571,13.1383269 38.316,13.1071731 38.2182857,13.0419808 L34.1085714,10.3079423 C33.8411429,10.13025 33.768,9.76794231 33.9434286,9.49851923 C34.1194286,9.23082692 34.4777143,9.15582692 34.744,9.33294231 L38.8542857,12.0675577 C39.1211429,12.2446731 39.1942857,12.6064038 39.0188571,12.8758269 C38.9074286,13.0460192 38.7234286,13.1383269 38.5354286,13.1383269" id="Fill-48" fill="#FFC000"></path>
                            <path d="M34.3328571,16.2978462 C34.0837143,16.2978462 33.854,16.134 33.7791429,15.8807308 L32.3688571,11.1193846 C32.2774286,10.8107308 32.4511429,10.4859231 32.7574286,10.3936154 C33.0597143,10.3001538 33.3854286,10.4761154 33.4768571,10.7847692 L34.8871429,15.5461154 C34.9785714,15.8547692 34.8042857,16.1807308 34.4985714,16.2730385 C34.4437143,16.2891923 34.3882857,16.2978462 34.3328571,16.2978462" id="Fill-50" fill="#FFC000"></path>
                            <path d="M29.0990286,15.9897115 C29.0224571,15.9897115 28.9447429,15.9741346 28.8704571,15.9418269 C28.5773143,15.81375 28.4424571,15.4704808 28.5687429,15.1745192 L30.5201714,10.6127885 C30.6470286,10.3168269 30.9870286,10.1800962 31.2801714,10.3075962 C31.5733143,10.4356731 31.7081714,10.7795192 31.5818857,11.0749038 L29.6304571,15.6372115 C29.5361714,15.8575962 29.3230286,15.9897115 29.0990286,15.9897115" id="Fill-52" fill="#FFC000"></path>
                            <path d="M25.2921143,12.3579808 C25.0806857,12.3579808 24.8761143,12.2408654 24.7749714,12.0366346 C24.6315429,11.74875 24.7469714,11.3979808 25.0321143,11.2531731 L29.4286857,9.01990385 C29.7115429,8.87394231 30.0612571,8.98990385 30.2052571,9.27836538 C30.3486857,9.56625 30.2326857,9.91759615 29.9475429,10.0624038 L25.5509714,12.2956731 C25.4686857,12.3383654 25.3795429,12.3579808 25.2921143,12.3579808" id="Fill-54" fill="#FFC000"></path>
                            <path d="M29.4729143,8.24630769 C29.4289143,8.24630769 29.3843429,8.24111538 29.3397714,8.23073077 L24.5489143,7.08842308 C24.2380571,7.014 24.0454857,6.69957692 24.1192,6.38573077 C24.1929143,6.07246154 24.5054857,5.87688462 24.8146286,5.95188462 L29.6043429,7.09476923 C29.9157714,7.16861538 30.1083429,7.48303846 30.0346286,7.79688462 C29.9717714,8.06515385 29.7346286,8.24630769 29.4729143,8.24630769" id="Fill-56" fill="#FFC000"></path>
                            <path d="M30.5036,6.66819231 C30.3264571,6.66819231 30.1533143,6.58684615 30.0396,6.43338462 L27.0973143,2.44973077 C26.9064571,2.19126923 26.9596,1.8255 27.2156,1.63280769 C27.4716,1.43953846 27.8338857,1.49434615 28.0247429,1.75223077 L30.9670286,5.73588462 C31.1578857,5.99434615 31.1041714,6.36011538 30.8487429,6.55280769 C30.7447429,6.63126923 30.6236,6.66819231 30.5036,6.66819231" id="Fill-58" fill="#FFC000"></path>
                            <path d="M32.2971429,6.12848077 C32.2857143,6.12848077 32.2748571,6.12790385 32.2628571,6.12732692 C31.9451429,6.10886538 31.7011429,5.83309615 31.7194286,5.51117308 L32.0022857,0.550211538 C32.0205714,0.227711538 32.2948571,-0.0163269231 32.6131429,0.000980769231 C32.9308571,0.0194423077 33.1748571,0.295211538 33.1565714,0.617134615 L32.8737143,5.57809615 C32.8565714,5.88848077 32.6011429,6.12848077 32.2971429,6.12848077" id="Fill-60" fill="#FFC000"></path>
                            <path d="M34.0142286,6.87496154 C33.8719429,6.87496154 33.7290857,6.82246154 33.6176571,6.71630769 C33.3850857,6.49476923 33.3742286,6.12553846 33.5936571,5.89073077 L36.9713714,2.27688462 C37.1913714,2.04323077 37.5565143,2.03169231 37.7885143,2.25265385 C38.0210857,2.47419231 38.0313714,2.844 37.8119429,3.07823077 L34.4342286,6.69265385 C34.3205143,6.81380769 34.1679429,6.87496154 34.0142286,6.87496154" id="Fill-62" fill="#FFC000"></path>
                            <path d="M34.8557714,8.56182692 C34.5660571,8.56182692 34.3163429,8.34259615 34.2820571,8.04490385 C34.2460571,7.72528846 34.4729143,7.43509615 34.7900571,7.39817308 L39.6786286,6.82701923 C39.9997714,6.78663462 40.2837714,7.01971154 40.3197714,7.33990385 C40.3563429,7.66009615 40.1294857,7.94913462 39.8123429,7.98663462 L34.9232,8.55778846 C34.9003429,8.56067308 34.8780571,8.56182692 34.8557714,8.56182692" id="Fill-64" fill="#FFC000"></path>
                            <path d="M8.12582857,6.63438462 C7.97954286,6.06207692 8.12068571,5.39226923 8.2424,4.81419231 C8.37554286,4.18303846 8.51268571,3.53169231 8.25211429,3.33611538 C7.99954286,3.14803846 7.94697143,2.78803846 8.13325714,2.53419231 C8.31954286,2.27919231 8.67497143,2.22496154 8.92754286,2.41419231 C9.77611429,3.04534615 9.5424,4.15880769 9.35382857,5.05246154 C9.22125714,5.68303846 9.08411429,6.33380769 9.34468571,6.52938462 C9.60582857,6.72438462 10.1835429,6.40073077 10.7412571,6.08803846 C11.5321143,5.64438462 12.5166857,5.09284615 13.3652571,5.72630769 C14.2132571,6.35803846 13.9801143,7.47034615 13.7921143,8.36457692 C13.6595429,8.99515385 13.5201143,9.64592308 13.7824,9.84207692 C14.0435429,10.0365 14.6212571,9.71284615 15.1801143,9.40015385 C15.9709714,8.9565 16.9549714,8.40496154 17.8041143,9.039 C18.6515429,9.67188462 18.4195429,10.7836154 18.2315429,11.6778462 C18.0984,12.3084231 17.9612571,12.9609231 18.2229714,13.1565 C18.4749714,13.344 18.5281143,13.704 18.3418286,13.9578462 C18.1555429,14.2128462 17.7995429,14.2665 17.5469714,14.0778462 C16.6989714,13.4455385 16.9315429,12.3332308 17.1195429,11.4395769 C17.2526857,10.8084231 17.3898286,10.1565 17.1281143,9.9615 C16.8669714,9.7665 16.2898286,10.0901538 15.7315429,10.4028462 C14.9401143,10.8465 13.9555429,11.3980385 13.1069714,10.764 C12.2584,10.1316923 12.4926857,9.01938462 12.6806857,8.12630769 C12.8132571,7.49573077 12.9521143,6.84380769 12.6892571,6.64823077 C12.4286857,6.45380769 11.8515429,6.77746154 11.2926857,7.09015385 C10.5018286,7.53438462 9.51782857,8.08534615 8.66868571,7.45188462 C8.36982857,7.22861538 8.20582857,6.94592308 8.12582857,6.63438462" id="Fill-66" fill="#FF0778"></path>
                            <g id="Group-70" transform="translate(53.142857, 14.840769)">
                                <mask id="mask-8" fill="white">
                                    <use xlink:href="#path-7"></use>
                                </mask>
                                <g id="Clip-69"></g>
                                <path d="M7.00028571,0.446942308 C7.46885714,0.355211538 8.00257143,0.504634615 8.46257143,0.632711538 C8.96485714,0.772903846 9.48314286,0.917711538 9.654,0.713480769 C9.818,0.515596154 10.11,0.489634615 10.306,0.655211538 C10.5025714,0.821365385 10.5282857,1.11617308 10.3637143,1.31463462 C9.81228571,1.98040385 8.92657143,1.73290385 8.21514286,1.53444231 C7.71342857,1.39425 7.19514286,1.24944231 7.02485714,1.45309615 C6.85457143,1.65848077 7.08714286,2.14886538 7.31171429,2.62309615 C7.63057143,3.29521154 8.026,4.13175 7.47285714,4.79809615 C6.92142857,5.46328846 6.03628571,5.21694231 5.32485714,5.01790385 C4.82314286,4.87771154 4.30485714,4.73117308 4.134,4.93713462 C3.96428571,5.14194231 4.19685714,5.63232692 4.42085714,6.10713462 C4.73971429,6.77925 5.13514286,7.61521154 4.58257143,8.28155769 C4.03057143,8.94675 3.14542857,8.70098077 2.434,8.50251923 C1.93171429,8.36232692 1.41285714,8.21694231 1.24257143,8.42175 C1.07857143,8.62021154 0.785428571,8.64559615 0.589428571,8.48059615 C0.393428571,8.31444231 0.367714286,8.01905769 0.532285714,7.82117308 C1.08428571,7.15540385 1.96942857,7.40175 2.68085714,7.60021154 C3.18257143,7.74098077 3.702,7.88578846 3.87228571,7.68040385 C4.042,7.47617308 3.81,6.98521154 3.58485714,6.51098077 C3.26714286,5.83886538 2.87057143,5.00232692 3.42371429,4.33598077 C3.97628571,3.67021154 4.86142857,3.91771154 5.57228571,4.11559615 C6.074,4.25694231 6.59228571,4.40232692 6.76314286,4.19694231 C6.93285714,3.99213462 6.70085714,3.50117308 6.47571429,3.02694231 C6.15742857,2.35540385 5.76142857,1.51828846 6.31457143,0.852519231 C6.50942857,0.617711538 6.74542857,0.496557692 7.00028571,0.446942308" id="Fill-68" fill="#FFC000" mask="url(#mask-8)"></path>
                            </g>
                            <path d="M1.99748571,22.2417692 C1.14262857,22.4644615 0.2712,21.9440769 0.0512,21.081 C-0.169371429,20.2179231 0.344914286,19.3381154 1.19977143,19.116 C2.05577143,18.8933077 2.92662857,19.4131154 3.1472,20.2767692 C3.3672,21.1398462 2.85234286,22.0190769 1.99748571,22.2417692" id="Fill-71" fill="#FFC000"></path>
                            <path d="M18.6392571,32.1401538 C17.7844,32.3622692 16.9129714,31.8424615 16.6929714,30.9793846 C16.4724,30.1163077 16.9866857,29.2365 17.8415429,29.0138077 C18.6975429,28.7916923 19.5684,29.3115 19.7889714,30.1745769 C20.0089714,31.0376538 19.4941143,31.9174615 18.6392571,32.1401538" id="Fill-73" fill="#FFC000"></path>
                            <path d="M50.3345714,19.5864231 C49.6528571,19.7641154 48.958,19.3498846 48.782,18.6610385 C48.6065714,17.9727692 49.0168571,17.2712308 49.6985714,17.0941154 C50.3802857,16.917 51.0751429,17.3312308 51.2511429,18.0195 C51.4265714,18.7077692 51.0157143,19.4093077 50.3345714,19.5864231" id="Fill-75" fill="#004EC6"></path>
                            <path d="M8.82394286,27.3935192 C8.14222857,27.5712115 7.44737143,27.1569808 7.27137143,26.4681346 C7.09651429,25.7798654 7.50622857,25.0783269 8.18794286,24.9012115 C8.86965714,24.7240962 9.56451429,25.1383269 9.74051429,25.8265962 C9.91594286,26.5148654 9.50508571,27.2164038 8.82394286,27.3935192" id="Fill-77" fill="#004EC6"></path>
                            <path d="M42.9394857,12.8661923 C42.9434857,12.5817692 43.1743429,12.3544615 43.4560571,12.3579231 L47.7966286,12.4150385 C48.0777714,12.4190769 48.3034857,12.6521538 48.2994857,12.9365769 C48.2960571,13.221 48.0646286,13.4483077 47.7834857,13.4448462 L43.4429143,13.3871538 C43.1617714,13.3836923 42.9360571,13.1506154 42.9394857,12.8661923" id="Fill-79" fill="#FF0778"></path>
                            <path d="M38.9143429,22.3149808 C38.7149143,22.1136346 38.7154857,21.78825 38.9149143,21.5869038 L41.9869143,18.4911346 C42.1863429,18.2897885 42.5086286,18.2897885 42.7080571,18.4917115 C42.9069143,18.6930577 42.9063429,19.0184423 42.7074857,19.2197885 L39.6354857,22.3155577 C39.4360571,22.5169038 39.1137714,22.5169038 38.9143429,22.3149808" id="Fill-81" fill="#8AD600"></path>
                            <path d="M16.1024,22.9307885 C15.8681143,23.0882885 15.5515429,23.02425 15.3955429,22.7877115 L12.9892571,19.1409808 C12.8326857,18.9044423 12.8966857,18.5848269 13.1309714,18.42675 C13.3652571,18.26925 13.6818286,18.3332885 13.8378286,18.5698269 L16.2441143,22.2171346 C16.4001143,22.4536731 16.3366857,22.7732885 16.1024,22.9307885" id="Fill-83" fill="#004EC6"></path>
                            <path d="M4.4272,33.4241538 C3.7432,33.6024231 3.04548571,33.1864615 2.86891429,32.4953077 C2.69291429,31.8041538 3.10491429,31.1003077 3.78948571,30.9220385 C4.47348571,30.7437692 5.1712,31.1597308 5.3472,31.8503077 C5.52377143,32.5420385 5.11177143,33.2458846 4.4272,33.4241538" id="Fill-85" fill="#8AD600"></path>
                            <polygon id="Fill-87" fill="#8AD600" points="27.9321714 22.9668462 26.2253143 24.4495385 26.4676 26.7099231 24.5430286 25.5289615 22.4887429 26.4606923 23.0058857 24.2476154 21.4938857 22.5624231 23.7384571 22.3760769 24.8584571 20.4035769 25.7281714 22.5006923"></polygon>
                            <path d="M55.6392571,12.2205577 C54.7844,12.4426731 53.9129714,11.9228654 53.6929714,11.0597885 C53.4724,10.1967115 53.9866857,9.31690385 54.8415429,9.09421154 C55.6969714,8.87209615 56.5684,9.39190385 56.7889714,10.2549808 C57.0084,11.1180577 56.4941143,11.9978654 55.6392571,12.2205577" id="Fill-89" fill="#FFC000"></path>
                            <path d="M51.5030857,32.4224423 C51.4356571,32.4224423 51.3670857,32.4034038 51.3065143,32.3630192 L48.7619429,30.6703269 C48.5968,30.5601346 48.5516571,30.3362885 48.6602286,30.1695577 C48.7693714,30.0034038 48.9910857,29.95725 49.1562286,30.0668654 L51.7002286,31.7601346 C51.8653714,31.8691731 51.9105143,32.0935962 51.8019429,32.2603269 C51.7328,32.3653269 51.6190857,32.4224423 51.5030857,32.4224423" id="Fill-91" fill="#FF0778"></path>
                            <path d="M48.9009714,34.3785577 C48.7466857,34.3785577 48.6044,34.2770192 48.5581143,34.1206731 L47.6855429,31.1731731 C47.6284,30.9816346 47.7364,30.7808654 47.9255429,30.7231731 C48.1152571,30.6649038 48.3146857,30.7750962 48.3712571,30.9660577 L49.2444,33.9129808 C49.3004,34.1045192 49.1929714,34.3058654 49.0038286,34.3629808 C48.9695429,34.3733654 48.9352571,34.3785577 48.9009714,34.3785577" id="Fill-93" fill="#FF0778"></path>
                            <path d="M45.6610286,34.1881154 C45.6136,34.1881154 45.5656,34.1783077 45.5193143,34.1581154 C45.3381714,34.0796538 45.2541714,33.8661923 45.3330286,33.6833077 L46.5410286,30.8586923 C46.6193143,30.6758077 46.8301714,30.5915769 47.0113143,30.6706154 C47.1930286,30.7496538 47.2764571,30.9619615 47.1976,31.1454231 L45.9896,33.9694615 C45.9318857,34.1061923 45.7993143,34.1881154 45.6610286,34.1881154" id="Fill-95" fill="#FF0778"></path>
                            <path d="M43.3044,31.9395577 C43.1735429,31.9395577 43.0472571,31.8668654 42.9844,31.7405192 C42.8952571,31.56225 42.9666857,31.3453269 43.1432571,31.2553269 L45.8649714,29.8730192 C46.0421143,29.7830192 46.2569714,29.8545577 46.3455429,30.0328269 C46.4346857,30.2116731 46.3638286,30.4285962 46.1866857,30.5180192 L43.4649714,31.9009038 C43.4129714,31.9274423 43.3586857,31.9395577 43.3044,31.9395577" id="Fill-97" fill="#FF0778"></path>
                            <path d="M45.8925714,29.3941154 C45.8651429,29.3941154 45.8371429,29.3906538 45.8097143,29.3843077 L42.844,28.6775769 C42.652,28.6314231 42.5325714,28.437 42.5782857,28.2425769 C42.6234286,28.0481538 42.816,27.9275769 43.0085714,27.9743077 L45.9748571,28.6810385 C46.1662857,28.7271923 46.2857143,28.9216154 46.24,29.1160385 C46.2017143,29.2821923 46.0542857,29.3941154 45.8925714,29.3941154" id="Fill-99" fill="#FF0778"></path>
                            <path d="M46.5304,28.4172115 C46.4218286,28.4172115 46.3132571,28.3670192 46.2435429,28.2718269 L44.4224,25.8060577 C44.3041143,25.6456731 44.3366857,25.4195192 44.4949714,25.3000962 C44.6532571,25.18125 44.8778286,25.2141346 44.9955429,25.3739423 L46.8172571,27.8402885 C46.9355429,28.0000962 46.9024,28.22625 46.7441143,28.3456731 C46.6801143,28.3941346 46.6046857,28.4172115 46.5304,28.4172115" id="Fill-101" fill="#FF0778"></path>
                            <path d="M47.6409143,28.0831154 C47.6334857,28.0831154 47.6272,28.0831154 47.6197714,28.0825385 C47.4226286,28.071 47.2717714,27.9008077 47.2832,27.7011923 L47.4586286,24.6296538 C47.4694857,24.4306154 47.6426286,24.2788846 47.8363429,24.2898462 C48.0334857,24.3008077 48.1843429,24.4715769 48.1729143,24.6711923 L47.9980571,27.7427308 C47.9866286,27.9348462 47.8289143,28.0831154 47.6409143,28.0831154" id="Fill-103" fill="#FF0778"></path>
                            <path d="M48.7034286,28.5456346 C48.6154286,28.5456346 48.5268571,28.51275 48.4577143,28.4464038 C48.3137143,28.3096731 48.308,28.0812115 48.4434286,27.9358269 L50.5348571,25.6985192 C50.6702857,25.5531346 50.8971429,25.5467885 51.0411429,25.6840962 C51.1845714,25.8208269 51.1914286,26.0498654 51.0554286,26.19525 L48.9634286,28.4319808 C48.8931429,28.5075577 48.7988571,28.5456346 48.7034286,28.5456346" id="Fill-105" fill="#FF0778"></path>
                            <path d="M49.2246286,29.5890577 C49.0457714,29.5890577 48.8909143,29.4540577 48.8697714,29.2694423 C48.8469143,29.0715577 48.9874857,28.8921346 49.1840571,28.8690577 L52.2109143,28.5159808 C52.4097714,28.4911731 52.5852,28.6348269 52.6074857,28.8327115 C52.6303429,29.0311731 52.4897714,29.2105962 52.2932,29.2336731 L49.2657714,29.58675 C49.2520571,29.5884808 49.2383429,29.5890577 49.2246286,29.5890577" id="Fill-107" fill="#FF0778"></path>
                        </g>
                    </g>
                </g>
            </g>
        </g>
    </g>
</svg>