<?xml version="1.0" encoding="UTF-8" standalone="no"?>
<svg width="50px" height="51px" viewBox="0 0 50 51" version="1.1" xmlns="http://www.w3.org/2000/svg" xmlns:xlink="http://www.w3.org/1999/xlink">
    <!-- Generator: Sketch 46.2 (44496) - http://www.bohemiancoding.com/sketch -->
    <title>wishing</title>
    <desc>Created with Sketch.</desc>
    <defs>
        <polygon id="path-1" points="21.3801157 0.177083333 0.431830986 0.177083333 0.431830986 40.6405928 21.3801157 40.6405928 21.3801157 0.177083333"></polygon>
        <polygon id="path-3" points="0.610597862 0.177083333 21.5585211 0.177083333 21.5585211 40.640315 0.610597862 40.640315 0.610597862 0.177083333"></polygon>
        <polygon id="path-5" points="0 50.822775 49.4852113 50.822775 49.4852113 0.708191667 0 0.708191667"></polygon>
    </defs>
    <g id="Page-1" stroke="none" stroke-width="1" fill="none" fill-rule="evenodd">
        <g id="mobi-sinnnhat-chi-tiet" transform="translate(-64.000000, -1745.000000)">
            <g id="wishlist" transform="translate(0.000000, 1732.000000)">
                <g id="Group-2" transform="translate(64.000000, 13.000000)">
                    <g id="wishing">
                        <g id="Page-1">
                            <g id="Group-3" transform="translate(24.647887, 0.531108)">
                                <mask id="mask-2" fill="white">
                                    <use xlink:href="#path-1"></use>
                                </mask>
                                <g id="Clip-2"></g>
                                <path d="M20.1966197,19.3690917 C22.5142254,17.0967583 21.2353521,13.1378833 18.0325352,12.669675 L10.3219718,11.5427167 C9.05014085,11.356425 7.95084507,10.5538833 7.38183099,9.39434167 L3.93394366,2.36696667 C3.21774648,0.907091667 1.82478873,0.1768 0.431830986,0.1768 L0.431830986,36.082925 C1.05577465,36.082925 1.68042254,36.2330917 2.24943662,36.533425 L9.14521127,40.1806333 C12.01,41.6957583 15.3585915,39.2484667 14.8114085,36.0397167 L13.494507,28.31605 C13.2769014,27.0417583 13.6973239,25.7419667 14.6177465,24.83955 L20.1966197,19.3690917 Z" id="Fill-1" fill="#FFE100" mask="url(#mask-2)"></path>
                            </g>
                            <g id="Group-6" transform="translate(3.521127, 0.531108)">
                                <mask id="mask-4" fill="white">
                                    <use xlink:href="#path-3"></use>
                                </mask>
                                <g id="Clip-5"></g>
                                <path d="M18.0571127,2.36696667 L14.6092254,9.39434167 C14.0402113,10.5538833 12.9402113,11.356425 11.6683803,11.5427167 L3.9578169,12.669675 C0.755704225,13.1378833 -0.523873239,17.0967583 1.79443662,19.3690917 L7.37330986,24.83955 C8.29373239,25.7419667 8.7134507,27.0417583 8.4965493,28.31605 L7.17964789,36.0397167 C6.63176056,39.2484667 9.98035211,41.69505 12.8451408,40.1806333 L19.7416197,36.533425 C20.3106338,36.2330917 20.9345775,36.082925 21.5585211,36.082925 L21.5585211,0.1768 C20.1662676,0.1768 18.7733099,0.906383333 18.0571127,2.36696667" id="Fill-4" fill="#FFBF00" mask="url(#mask-4)"></path>
                            </g>
                            <path d="M25.0797887,36.6138208 L25.0797887,50.5439042" id="Stroke-7" stroke="#FF0278" stroke-width="0.787" stroke-linecap="round"></path>
                            <path d="M35.1710563,22.8511167 C29.045,18.8037 21.1147183,18.8037 14.988662,22.8511167 C14.8957042,21.7199083 14.8865493,20.5632 14.9619014,19.3902 C13.9478169,18.80795 12.866831,18.2922833 11.7259859,17.8545333 C19.8323239,12.498825 30.3273944,12.498825 38.4337324,17.8545333 C37.2928873,18.2922833 36.2126056,18.80795 35.1978169,19.3902 C35.2738732,20.5632 35.2640141,21.7199083 35.1710563,22.8511167" id="Fill-9" fill="#F23048"></path>
                            <path d="M18.9539437,16.9983708 C19.0828169,17.3844125 19.2123944,17.7704542 19.3412676,18.1564958 C19.8398592,17.9879125 20.3433803,17.8391625 20.8504225,17.7116625 C20.751831,17.3164125 20.6532394,16.9211625 20.5546479,16.5259125 C20.6997183,16.4890792 20.845493,16.4536625 20.9912676,16.4210792 C21.2074648,17.3695375 21.4229577,18.3187042 21.6391549,19.2685792 C21.5130986,19.2969125 21.3870423,19.3273708 21.2616901,19.3592458 C21.1511268,18.9165375 21.0405634,18.4738292 20.93,18.0311208 C20.4314085,18.1572042 19.936338,18.3031208 19.445493,18.4688708 C19.5905634,18.9016625 19.7349296,19.3344542 19.88,19.7665375 C19.758169,19.8083292 19.636338,19.8508292 19.5152113,19.8947458 C19.1870423,18.9788708 18.8595775,18.0622875 18.5314085,17.1464125 C18.6722535,17.0954125 18.8123944,17.0458292 18.9539437,16.9983708" id="Fill-11" fill="#FFFFFF"></path>
                            <path d="M23.703662,17.6962917 C23.5726761,17.4285417 23.4374648,17.1615 23.2973239,16.895875 C23.2022535,16.7145417 23.131831,16.5502083 23.0607042,16.388 C23.0571831,16.388 23.0543662,16.3887083 23.0508451,16.3894167 C23.0233803,16.5679167 22.9930986,16.751375 22.9543662,16.93625 C22.8853521,17.2302083 22.8219718,17.5241667 22.7628169,17.818125 C23.075493,17.7699583 23.3895775,17.7295833 23.703662,17.6962917 M22.725493,18.1227083 C22.666338,18.4414583 22.6128169,18.7609167 22.5649296,19.080375 C22.4346479,19.1030417 22.3057746,19.1278333 22.1761972,19.1533333 C22.3177465,18.132625 22.5128169,17.1105 22.7621127,16.0919167 C22.938169,16.067125 23.1142254,16.0444583 23.2909859,16.0239167 C23.788169,16.9461667 24.2339437,17.886125 24.6269014,18.8374167 C24.4916901,18.8452083 24.3557746,18.8558333 24.2205634,18.8664583 C24.0909859,18.5696667 23.9557746,18.2742917 23.8156338,17.9810417 C23.4515493,18.017875 23.0874648,18.0653333 22.725493,18.1227083" id="Fill-13" fill="#FFFFFF"></path>
                            <path d="M25.5350704,17.3269667 C25.6252113,17.3482167 25.7378873,17.3560083 25.874507,17.3567167 C26.3688732,17.361675 26.6801408,17.1598 26.7019718,16.75605 C26.7223944,16.3707167 26.4153521,16.1660083 25.933662,16.16105 C25.7435211,16.1603417 25.5984507,16.1738 25.5238028,16.1915083 C25.5280282,16.5704667 25.5315493,16.9487167 25.5350704,17.3269667 M25.0808451,15.9273 C25.2921127,15.891175 25.5716901,15.8600083 25.9266197,15.8628417 C26.3632394,15.8663833 26.6801408,15.9690917 26.8716901,16.13555 C27.0498592,16.2843 27.1435211,16.5038833 27.1259155,16.7631333 C27.1076056,17.0273417 27.0061972,17.2285083 26.8378873,17.3708833 C26.6083099,17.569925 26.2583099,17.663425 25.8632394,17.6605917 C25.7421127,17.6598833 25.6308451,17.6563417 25.5378873,17.6350917 C25.5421127,18.024675 25.5456338,18.4149667 25.5491549,18.8052583 C25.4223944,18.806675 25.2956338,18.8088 25.168169,18.81305 C25.1392958,17.8511333 25.1097183,16.8892167 25.0808451,15.9273" id="Fill-15" fill="#FFFFFF"></path>
                            <path d="M28.1624648,17.4770625 C28.2490845,17.5103542 28.3603521,17.5330208 28.4962676,17.5521458 C28.9857042,17.6229792 29.3223239,17.4643125 29.3969718,17.0676458 C29.4680986,16.6893958 29.1899296,16.4450208 28.7117606,16.3748958 C28.5237324,16.3479792 28.3779577,16.3423125 28.3011972,16.3508125 C28.2547183,16.7262292 28.2082394,17.1016458 28.1624648,17.4770625 M27.8962676,16.0299375 C28.1110563,16.0214375 28.3920423,16.0271042 28.7441549,16.0781042 C29.1779577,16.1411458 29.4793662,16.2842292 29.6483803,16.4754792 C29.8054225,16.6468958 29.8702113,16.8771042 29.8180986,17.1321042 C29.7645775,17.3906458 29.6385211,17.5769375 29.4519014,17.6952292 C29.1969718,17.8616875 28.8364085,17.9063125 28.4441549,17.8517708 C28.3244366,17.8347708 28.2138732,17.8163542 28.1244366,17.7830625 C28.0765493,18.1705208 28.0293662,18.5565625 27.9814789,18.9440208 C27.8554225,18.9284375 27.728662,18.9142708 27.6026056,18.9015208 C27.700493,17.9438542 27.7983803,16.9868958 27.8962676,16.0299375" id="Fill-17" fill="#FFFFFF"></path>
                            <path d="M30.613169,19.4713042 C30.7230282,19.0732208 30.8321831,18.6751375 30.9420423,18.2763458 C30.7680986,17.6466375 30.5652817,17.0176375 30.3328873,16.3914708 C30.4962676,16.4283042 30.6603521,16.4665542 30.8237324,16.5069292 C30.9166901,16.8072625 31.0033099,17.1075958 31.0835915,17.4079292 C31.1490845,17.6551375 31.1941549,17.8534708 31.235,18.0758875 C31.2385211,18.0765958 31.241338,18.0773042 31.2441549,18.0787208 C31.3842958,17.9214708 31.5448592,17.7698875 31.7314789,17.5963458 C31.9624648,17.3866792 32.1990845,17.1812625 32.4406338,16.9786792 C32.6011972,17.0325125 32.7617606,17.0884708 32.9216197,17.1465542 C32.3688028,17.5396792 31.8420423,17.9547625 31.3420423,18.3882625 C31.2237324,18.7849292 31.1054225,19.1823042 30.9871127,19.5796792 C30.8624648,19.5421375 30.7385211,19.5060125 30.613169,19.4713042" id="Fill-19" fill="#FFFFFF"></path>
                            <path d="M3.50394366,30.3688708 C3.8856338,30.3688708 4.20183099,30.2633292 4.45253521,30.0373708 C4.71591549,29.8128292 4.84760563,29.5209958 4.84760563,29.1498292 C4.84760563,28.7786625 4.71591549,28.4875375 4.45253521,28.2615792 C4.20183099,28.0632458 3.8856338,27.9577042 3.50394366,27.9577042 L2.37084507,27.9577042 L2.37084507,30.3688708 L3.50394366,30.3688708 Z M3.42507042,26.4468292 C3.75394366,26.4468292 4.01732394,26.3405792 4.24126761,26.1415375 C4.46591549,25.9432042 4.57084507,25.6782875 4.57084507,25.3602458 C4.57084507,25.0414958 4.46591549,24.7900375 4.24126761,24.5917042 C4.03070423,24.4061208 3.75394366,24.3133292 3.39830986,24.3133292 L2.37084507,24.3133292 L2.37084507,26.4468292 L3.42507042,26.4468292 Z M0.513098592,22.6969125 L3.43774648,22.6969125 C4.36028169,22.6969125 5.09830986,22.9214542 5.63774648,23.3592042 C6.19126761,23.7969542 6.46802817,24.3926625 6.46802817,25.1484542 C6.46802817,25.5727458 6.36309859,25.9694125 6.16521127,26.3271208 C5.96732394,26.6855375 5.69056338,26.9632042 5.36169014,27.1487875 C6.29690141,27.5468708 6.77084507,28.2488292 6.77084507,29.2560792 C6.77084507,30.1174125 6.45464789,30.7931625 5.82225352,31.2833292 C5.24267606,31.7465792 4.50535211,31.9725375 3.60887324,31.9725375 L0.513098592,31.9725375 L0.513098592,22.6969125 Z" id="Fill-21" fill="#F23048"></path>
                            <mask id="mask-6" fill="white">
                                <use xlink:href="#path-5"></use>
                            </mask>
                            <g id="Clip-24"></g>
                            <path d="M7.88028169,31.9719 L9.69859155,31.9719 L9.69859155,25.0415667 L7.88028169,25.0415667 L7.88028169,31.9719 Z M8.77605634,22.3251083 C9.07957746,22.3251083 9.34295775,22.4320667 9.54014085,22.6304 C9.73802817,22.8287333 9.84366197,23.0674417 9.84366197,23.3727333 C9.84366197,23.6773167 9.73802817,23.916025 9.54014085,24.1143583 C9.34295775,24.3134 9.07957746,24.4189417 8.77605634,24.4189417 C8.47323944,24.4189417 8.22323944,24.3134 8.02535211,24.1143583 C7.82816901,23.916025 7.72253521,23.6773167 7.72253521,23.3727333 C7.72253521,23.0674417 7.82816901,22.8287333 8.02535211,22.6304 C8.22323944,22.4320667 8.47323944,22.3251083 8.77605634,22.3251083 L8.77605634,22.3251083 Z" id="Fill-23" fill="#F23048" mask="url(#mask-6)"></path>
                            <path d="M14.8114085,26.7247792 C13.5733803,26.7247792 12.953662,27.4671125 12.953662,28.9510708 L12.953662,31.9721125 L11.1360563,31.9721125 L11.1360563,25.0417792 L12.9142254,25.0417792 L12.9142254,26.0490292 C13.2564789,25.2670292 13.8888732,24.8696542 14.8114085,24.8696542 L14.8114085,26.7247792 Z" id="Fill-25" fill="#F23048" mask="url(#mask-6)"></path>
                            <path d="M16.446831,23.5843125 L18.2383803,23.5843125 L18.2383803,25.0420625 L19.5292254,25.0420625 L19.5292254,26.5260208 L18.2383803,26.5260208 L18.2383803,29.2028125 C18.2383803,29.6929792 18.3172535,30.0372292 18.4883803,30.2100625 C18.6334507,30.3687292 18.8841549,30.4480625 19.2524648,30.4480625 C19.3714789,30.4480625 19.4897887,30.4480625 19.5820423,30.4353125 L19.5820423,31.9986042 C19.3975352,32.0389792 19.1341549,32.0651875 18.8052817,32.0651875 C17.2242958,32.0651875 16.4334507,31.1245208 16.4334507,29.2559375 L16.4334507,26.5260208 L15.7088028,26.5260208 L15.7088028,25.0420625 L16.446831,25.0420625 L16.446831,23.5843125 Z" id="Fill-26" fill="#F23048" mask="url(#mask-6)"></path>
                            <path d="M26.6849296,27.9705958 L26.6849296,31.9719708 L24.88,31.9719708 L24.88,27.7580958 C24.88,27.3876375 24.7616901,27.0823458 24.5377465,26.8443458 C24.3130986,26.6190958 24.0497183,26.5128458 23.7342254,26.5128458 C23.351831,26.5128458 23.0483099,26.6318458 22.8250704,26.8840125 C22.6011268,27.1227208 22.4821127,27.4265958 22.4821127,27.8112208 L22.4821127,31.9719708 L20.664507,31.9719708 L20.664507,22.3917625 L22.4821127,22.3917625 L22.4821127,25.8505542 C22.6532394,25.5721792 22.8771831,25.3469292 23.1673239,25.1748042 C23.5095775,24.9757625 23.8919718,24.8695125 24.3004225,24.8695125 C25.1961972,24.8695125 25.8419718,25.2010125 26.2370423,25.8633042 C26.5398592,26.3803875 26.6849296,27.0823458 26.6849296,27.9705958" id="Fill-27" fill="#F23048" mask="url(#mask-6)"></path>
                            <path d="M31.2854225,26.4861417 C30.758662,26.4861417 30.336831,26.6724333 30.0079577,27.05635 C29.6783803,27.440975 29.5199296,27.9304333 29.5199296,28.52685 C29.5199296,29.136725 29.6910563,29.6268917 30.0206338,29.9846 C30.3502113,30.3423083 30.7720423,30.5278917 31.2854225,30.5278917 C31.8255634,30.5278917 32.2600704,30.3295583 32.5896479,29.9449333 C32.8924648,29.5610167 33.0509155,29.0970583 33.0509155,28.52685 C33.0509155,27.8907667 32.8797887,27.3871417 32.5502113,27.0166833 C32.2206338,26.6582667 31.7988028,26.4861417 31.2854225,26.4861417 L31.2854225,26.4861417 Z M34.8164085,31.9721833 L33.1037324,31.9721833 L33.1037324,31.2567667 C33.0769718,31.2964333 33.0509155,31.3226417 33.0114789,31.3630167 C32.9720423,31.401975 32.9192254,31.4558083 32.8664085,31.4947667 C32.7480986,31.601725 32.6030282,31.6945167 32.4579577,31.7866 C32.0361268,32.0253083 31.5755634,32.1443083 31.0614789,32.1443083 C30.0734507,32.1443083 29.2565493,31.8000583 28.6375352,31.1243083 C28.0051408,30.4485583 27.6889437,29.587225 27.6889437,28.5133917 C27.6889437,27.440975 27.9917606,26.565475 28.5847183,25.889725 C29.1776761,25.213975 29.9678169,24.869725 30.9558451,24.869725 C31.4699296,24.869725 31.9445775,24.9894333 32.3523239,25.2274333 C32.5107746,25.320225 32.6558451,25.4130167 32.7741549,25.5320167 C32.8664085,25.6120583 32.9452817,25.6913917 32.9980986,25.770725 L32.9980986,22.391975 L34.8164085,22.391975 L34.8164085,31.9721833 Z" id="Fill-28" fill="#F23048" mask="url(#mask-6)"></path>
                            <path d="M38.8637324,30.7265083 C39.2193662,30.7265083 39.4961268,30.6337167 39.7200704,30.4615917 C39.9440141,30.2894667 40.0496479,30.0642167 40.0496479,29.7723833 C40.0496479,29.4678 39.9306338,29.2298 39.7066901,29.057675 C39.4961268,28.8848417 39.2059859,28.8055083 38.8503521,28.8055083 C38.4947183,28.8055083 38.2179577,28.8983 37.9940141,29.070425 C37.7700704,29.2560083 37.6651408,29.4947167 37.6651408,29.7723833 C37.6651408,30.0507583 37.7834507,30.2894667 38.0073944,30.4615917 C38.231338,30.6337167 38.5214789,30.7265083 38.8637324,30.7265083 M38.5214789,27.5333417 C38.8369718,27.5333417 39.140493,27.5730083 39.4306338,27.6658 C39.6672535,27.731675 39.8651408,27.8117167 40.009507,27.9172583 L40.009507,27.4667583 C40.009507,27.162175 39.9045775,26.9100083 39.6806338,26.7251333 C39.4566901,26.53955 39.1538732,26.4467583 38.7588028,26.4467583 C38.1658451,26.4467583 37.559507,26.6061333 36.9271127,26.936925 L36.2419014,25.691675 C37.0454225,25.1483833 37.9411972,24.8693 38.9559859,24.8693 C40.8665493,24.8693 41.8278169,25.7710083 41.8278169,27.5857583 L41.8278169,31.9724667 L40.2207746,31.9724667 L40.1017606,31.5219667 C39.7200704,31.9328 39.1538732,32.1445917 38.4292254,32.1445917 C37.7045775,32.1445917 37.0982394,31.9462583 36.6109155,31.535425 C36.096831,31.097675 35.846831,30.528175 35.846831,29.8262167 C35.846831,29.1497583 36.096831,28.5930083 36.5848592,28.169425 C37.0721831,27.7451333 37.7179577,27.5333417 38.5214789,27.5333417" id="Fill-29" fill="#F23048" mask="url(#mask-6)"></path>
                            <polygon id="Fill-30" fill="#F23048" mask="url(#mask-6)" points="44.2283099 34.34425 45.1902817 31.7999167 42.5416901 25.0417083 44.4916901 25.0417083 46.0332394 29.560875 47.588169 25.0417083 49.4846479 25.0417083 45.9670423 34.34425"></polygon>
                            <path d="M2.99056338,29.8818917 C3.37225352,29.8818917 3.6884507,29.77635 3.93915493,29.5503917 C4.20253521,29.32585 4.33422535,29.0340167 4.33422535,28.66285 C4.33422535,28.2916833 4.20253521,28.0005583 3.93915493,27.7746 C3.6884507,27.5762667 3.37225352,27.470725 2.99056338,27.470725 L1.85746479,27.470725 L1.85746479,29.8818917 L2.99056338,29.8818917 Z M2.91169014,25.95985 C3.24056338,25.95985 3.50394366,25.8536 3.72788732,25.6545583 C3.95253521,25.456225 4.05746479,25.1913083 4.05746479,24.8732667 C4.05746479,24.5545167 3.95253521,24.3030583 3.72788732,24.104725 C3.51732394,23.9191417 3.24056338,23.82635 2.88492958,23.82635 L1.85746479,23.82635 L1.85746479,25.95985 L2.91169014,25.95985 Z M-0.000281690141,22.2099333 L2.9243662,22.2099333 C3.84690141,22.2099333 4.58492958,22.434475 5.1243662,22.872225 C5.67788732,23.309975 5.95464789,23.9056833 5.95464789,24.661475 C5.95464789,25.0857667 5.84971831,25.4824333 5.65183099,25.8401417 C5.45394366,26.1985583 5.1771831,26.476225 4.84830986,26.6618083 C5.78352113,27.0598917 6.25746479,27.76185 6.25746479,28.7691 C6.25746479,29.6304333 5.94126761,30.3061833 5.30887324,30.79635 C4.72929577,31.2596 3.99197183,31.4855583 3.09549296,31.4855583 L-0.000281690141,31.4855583 L-0.000281690141,22.2099333 Z" id="Fill-31" fill="#FFFFFF" mask="url(#mask-6)"></path>
                            <path d="M7.36690141,31.485275 L9.18521127,31.485275 L9.18521127,24.5549417 L7.36690141,24.5549417 L7.36690141,31.485275 Z M8.26267606,21.8384833 C8.56619718,21.8384833 8.82957746,21.9447333 9.02676056,22.143775 C9.22464789,22.3421083 9.33028169,22.5808167 9.33028169,22.8854 C9.33028169,23.1899833 9.22464789,23.4286917 9.02676056,23.627025 C8.82957746,23.826775 8.56619718,23.9323167 8.26267606,23.9323167 C7.95985915,23.9323167 7.70985915,23.826775 7.51197183,23.627025 C7.31478873,23.4286917 7.20915493,23.1899833 7.20915493,22.8854 C7.20915493,22.5808167 7.31478873,22.3421083 7.51197183,22.143775 C7.70985915,21.9447333 7.95985915,21.8384833 8.26267606,21.8384833 L8.26267606,21.8384833 Z" id="Fill-32" fill="#FFFFFF" mask="url(#mask-6)"></path>
                            <path d="M14.2980282,26.2378 C13.06,26.2378 12.4402817,26.9801333 12.4402817,28.4640917 L12.4402817,31.4851333 L10.6226761,31.4851333 L10.6226761,24.5548 L12.4008451,24.5548 L12.4008451,25.56205 C12.7430986,24.78005 13.375493,24.382675 14.2980282,24.382675 L14.2980282,26.2378 Z" id="Fill-33" fill="#FFFFFF" mask="url(#mask-6)"></path>
                            <path d="M15.9334507,23.0973333 L17.725,23.0973333 L17.725,24.5550833 L19.0158451,24.5550833 L19.0158451,26.0390417 L17.725,26.0390417 L17.725,28.7158333 C17.725,29.206 17.8038732,29.55025 17.975,29.7230833 C18.1200704,29.88175 18.3707746,29.9610833 18.7390845,29.9610833 C18.8580986,29.9610833 18.9764085,29.9610833 19.068662,29.9483333 L19.068662,31.511625 C18.8841549,31.552 18.6207746,31.5782083 18.2919014,31.5782083 C16.7109155,31.5782083 15.9200704,30.6375417 15.9200704,28.7689583 L15.9200704,26.0390417 L15.1954225,26.0390417 L15.1954225,24.5550833 L15.9334507,24.5550833 L15.9334507,23.0973333 Z" id="Fill-34" fill="#FFFFFF" mask="url(#mask-6)"></path>
                            <path d="M26.1715493,27.4836167 L26.1715493,31.4849917 L24.3666197,31.4849917 L24.3666197,27.2711167 C24.3666197,26.9006583 24.2483099,26.5953667 24.0243662,26.3573667 C23.7997183,26.1321167 23.536338,26.0258667 23.2208451,26.0258667 C22.8384507,26.0258667 22.5349296,26.1448667 22.3116901,26.3970333 C22.0877465,26.6357417 21.9687324,26.9396167 21.9687324,27.3242417 L21.9687324,31.4849917 L20.1511268,31.4849917 L20.1511268,21.9047833 L21.9687324,21.9047833 L21.9687324,25.363575 C22.1398592,25.0852 22.3638028,24.85995 22.6539437,24.687825 C22.9961972,24.4887833 23.3785915,24.3825333 23.7870423,24.3825333 C24.6828169,24.3825333 25.3285915,24.7140333 25.723662,25.376325 C26.0264789,25.8934083 26.1715493,26.5953667 26.1715493,27.4836167" id="Fill-35" fill="#FFFFFF" mask="url(#mask-6)"></path>
                            <path d="M30.7720423,25.9991625 C30.2452817,25.9991625 29.8234507,26.1854542 29.4945775,26.5693708 C29.165,26.9539958 29.0065493,27.4434542 29.0065493,28.0398708 C29.0065493,28.6497458 29.1776761,29.1399125 29.5072535,29.4976208 C29.836831,29.8553292 30.258662,30.0409125 30.7720423,30.0409125 C31.3121831,30.0409125 31.7466901,29.8425792 32.0762676,29.4579542 C32.3790845,29.0740375 32.5375352,28.6100792 32.5375352,28.0398708 C32.5375352,27.4037875 32.3664085,26.9001625 32.036831,26.5297042 C31.7072535,26.1712875 31.2854225,25.9991625 30.7720423,25.9991625 L30.7720423,25.9991625 Z M34.3030282,31.4852042 L32.5903521,31.4852042 L32.5903521,30.7697875 C32.5635915,30.8094542 32.5375352,30.8356625 32.4980986,30.8760375 C32.458662,30.9149958 32.4058451,30.9688292 32.3530282,31.0077875 C32.2347183,31.1147458 32.0896479,31.2075375 31.9445775,31.2996208 C31.5227465,31.5383292 31.0621831,31.6573292 30.5480986,31.6573292 C29.5600704,31.6573292 28.743169,31.3130792 28.1241549,30.6373292 C27.4917606,29.9615792 27.1755634,29.1002458 27.1755634,28.0264125 C27.1755634,26.9539958 27.4783803,26.0784958 28.071338,25.4027458 C28.6642958,24.7269958 29.4544366,24.3827458 30.4424648,24.3827458 C30.9565493,24.3827458 31.4311972,24.5024542 31.8389437,24.7404542 C31.9973944,24.8332458 32.1424648,24.9260375 32.2607746,25.0450375 C32.3530282,25.1250792 32.4319014,25.2044125 32.4847183,25.2837458 L32.4847183,21.9049958 L34.3030282,21.9049958 L34.3030282,31.4852042 Z" id="Fill-36" fill="#FFFFFF" mask="url(#mask-6)"></path>
                            <path d="M38.3503521,30.2395292 C38.7059859,30.2395292 38.9827465,30.1467375 39.2066901,29.9746125 C39.4306338,29.8024875 39.5362676,29.5772375 39.5362676,29.2854042 C39.5362676,28.9808208 39.4172535,28.7428208 39.1933099,28.5706958 C38.9827465,28.3978625 38.6926056,28.3185292 38.3369718,28.3185292 C37.981338,28.3185292 37.7045775,28.4113208 37.4806338,28.5834458 C37.2566901,28.7690292 37.1517606,29.0077375 37.1517606,29.2854042 C37.1517606,29.5637792 37.2700704,29.8024875 37.4940141,29.9746125 C37.7179577,30.1467375 38.0080986,30.2395292 38.3503521,30.2395292 M38.0080986,27.0463625 C38.3235915,27.0463625 38.6271127,27.0860292 38.9172535,27.1788208 C39.1538732,27.2446958 39.3517606,27.3247375 39.4961268,27.4302792 L39.4961268,26.9797792 C39.4961268,26.6751958 39.3911972,26.4230292 39.1672535,26.2381542 C38.9433099,26.0525708 38.640493,25.9597792 38.2454225,25.9597792 C37.6524648,25.9597792 37.0461268,26.1191542 36.4137324,26.4499458 L35.7285211,25.2046958 C36.5320423,24.6614042 37.4278169,24.3823208 38.4426056,24.3823208 C40.353169,24.3823208 41.3144366,25.2840292 41.3144366,27.0987792 L41.3144366,31.4854875 L39.7073944,31.4854875 L39.5883803,31.0349875 C39.2066901,31.4458208 38.640493,31.6576125 37.9158451,31.6576125 C37.1911972,31.6576125 36.5848592,31.4592792 36.0975352,31.0484458 C35.5834507,30.6106958 35.3334507,30.0411958 35.3334507,29.3392375 C35.3334507,28.6627792 35.5834507,28.1060292 36.0714789,27.6824458 C36.5588028,27.2581542 37.2045775,27.0463625 38.0080986,27.0463625" id="Fill-37" fill="#FFFFFF" mask="url(#mask-6)"></path>
                            <polygon id="Fill-38" fill="#FFFFFF" mask="url(#mask-6)" points="43.7149296 33.8572708 44.6769014 31.3129375 42.0283099 24.5547292 43.9783099 24.5547292 45.5198592 29.0738958 47.0747887 24.5547292 48.9712676 24.5547292 45.453662 33.8572708"></polygon>
                            <path d="M21.4644366,38.0187292 C22.0193662,37.4612708 24.9454225,36.5376042 24.9454225,36.5376042 C24.9454225,36.5376042 24.0271127,39.4807292 23.4728873,40.0388958 C22.9179577,40.5970625 22.0193662,40.5970625 21.4644366,40.0388958 C20.909507,39.4807292 20.909507,38.5761875 21.4644366,38.0187292 Z" id="Stroke-39" stroke="#FF0278" stroke-width="0.787" stroke-linecap="round" mask="url(#mask-6)"></path>
                            <path d="M28.6951408,38.0187292 C28.1409155,37.4612708 25.2141549,36.5376042 25.2141549,36.5376042 C25.2141549,36.5376042 26.1324648,39.4807292 26.6866901,40.0388958 C27.2416197,40.5970625 28.1409155,40.5970625 28.6951408,40.0388958 C29.2500704,39.4807292 29.2500704,38.5761875 28.6951408,38.0187292 Z" id="Stroke-40" stroke="#FF0278" stroke-width="0.787" stroke-linecap="round" mask="url(#mask-6)"></path>
                        </g>
                    </g>
                </g>
            </g>
        </g>
    </g>
</svg>